<?xml version="1.0" encoding="UTF-8" standalone="no"?>
<svg
   height="64"
   viewBox="0 -960 2560 2560"
   width="64"
   fill="#e8eaed"
   version="1.1"
   id="svg1"
   sodipodi:docname="shopping_cart.svg"
   inkscape:version="1.4 (86a8ad7, 2024-10-11)"
   xmlns:inkscape="http://www.inkscape.org/namespaces/inkscape"
   xmlns:sodipodi="http://sodipodi.sourceforge.net/DTD/sodipodi-0.dtd"
   xmlns="http://www.w3.org/2000/svg"
   xmlns:svg="http://www.w3.org/2000/svg">
  <defs
     id="defs1" />
  <sodipodi:namedview
     id="namedview1"
     pagecolor="#ffffff"
     bordercolor="#000000"
     borderopacity="0.25"
     inkscape:showpageshadow="2"
     inkscape:pageopacity="0.0"
     inkscape:pagecheckerboard="0"
     inkscape:deskcolor="#d1d1d1"
     inkscape:zoom="5.9441164"
     inkscape:cx="11.524"
     inkscape:cy="27.506191"
     inkscape:window-width="1920"
     inkscape:window-height="1009"
     inkscape:window-x="-8"
     inkscape:window-y="-8"
     inkscape:window-maximized="1"
     inkscape:current-layer="svg1" />
  <path
     d="m 940.00821,1101.5904 q -64.48118,0 -110.39963,-45.9186 -45.91843,-45.9183 -45.91843,-110.39954 0,-64.4812 45.91843,-110.39963 45.91845,-45.91843 110.39963,-45.91843 64.48119,0 110.39969,45.91843 45.9184,45.91843 45.9184,110.39963 0,64.48124 -45.9184,110.39954 -45.9185,45.9186 -110.39969,45.9186 z m 781.59029,0 q -64.4811,0 -110.3996,-45.9186 -45.9185,-45.9183 -45.9185,-110.39954 0,-64.4812 45.9185,-110.39963 45.9185,-45.91843 110.3996,-45.91843 64.4812,0 110.3997,45.91843 45.9184,45.91843 45.9184,110.39963 0,64.48124 -45.9184,110.39954 -45.9185,45.9186 -110.3997,45.9186 z M 799.32196,-305.27226 H 2088.946 L 1700.1048,398.15903 H 1025.9832 L 940.00821,554.47709 H 1877.9166 V 710.79514 H 676.22148 L 908.7446,288.73638 627.3721,-305.27226 H 471.05404 v -156.31806 h 254.01685 z"
     id="path1"
     style="stroke-width:0.999999" />
</svg>
