<?xml version="1.0" encoding="UTF-8" standalone="no"?>
<!-- Created with Inkscape (http://www.inkscape.org/) -->

<svg
   width="80"
   height="80"
   viewBox="0 0 21.166666 21.166667"
   version="1.1"
   id="svg1"
   inkscape:version="1.4 (86a8ad7, 2024-10-11)"
   sodipodi:docname="speed.svg"
   xml:space="preserve"
   xmlns:inkscape="http://www.inkscape.org/namespaces/inkscape"
   xmlns:sodipodi="http://sodipodi.sourceforge.net/DTD/sodipodi-0.dtd"
   xmlns:xlink="http://www.w3.org/1999/xlink"
   xmlns="http://www.w3.org/2000/svg"
   xmlns:svg="http://www.w3.org/2000/svg"><sodipodi:namedview
     id="namedview1"
     pagecolor="#505050"
     bordercolor="#ffffff"
     borderopacity="1"
     inkscape:showpageshadow="0"
     inkscape:pageopacity="0"
     inkscape:pagecheckerboard="1"
     inkscape:deskcolor="#505050"
     inkscape:document-units="px"
     inkscape:zoom="4.1071316"
     inkscape:cx="-4.991318"
     inkscape:cy="9.6174177"
     inkscape:window-width="1920"
     inkscape:window-height="1009"
     inkscape:window-x="-8"
     inkscape:window-y="-8"
     inkscape:window-maximized="1"
     inkscape:current-layer="svg1" /><defs
     id="defs1"><linearGradient
       id="linearGradient3"><stop
         style="stop-color:#111218;stop-opacity:1;"
         offset="0"
         id="stop3" /><stop
         style="stop-color:#02020e;stop-opacity:1;"
         offset="1"
         id="stop4" /></linearGradient><linearGradient
       id="linearGradient1"><stop
         style="stop-color:#d1dce1;stop-opacity:1;"
         offset="0"
         id="stop1" /><stop
         style="stop-color:#ffffff;stop-opacity:1;"
         offset="1"
         id="stop2" /></linearGradient><linearGradient
       xlink:href="#linearGradient1"
       id="linearGradient2"
       x1="-2.1166666"
       y1="6.3499999"
       x2="14.816666"
       y2="6.3499999"
       gradientUnits="userSpaceOnUse"
       gradientTransform="matrix(0.22294803,0.22294845,-0.37158004,0.37158075,6.249889,10.826513)" /><linearGradient
       xlink:href="#linearGradient3"
       id="linearGradient4"
       x1="-3.5762787e-07"
       y1="6.3499999"
       x2="12.7"
       y2="6.3499999"
       gradientUnits="userSpaceOnUse"
       gradientTransform="matrix(0.29726402,0.29726459,-0.49544005,0.49544099,6.5644935,9.5680929)" /><linearGradient
       inkscape:collect="always"
       xlink:href="#linearGradient1"
       id="linearGradient42"
       gradientUnits="userSpaceOnUse"
       gradientTransform="matrix(0.22294804,0.22294845,-0.37158004,0.37158073,17.643584,-0.56716502)"
       x1="-2.1166666"
       y1="6.3499999"
       x2="14.816666"
       y2="6.3499999" /><linearGradient
       inkscape:collect="always"
       xlink:href="#linearGradient3"
       id="linearGradient43"
       gradientUnits="userSpaceOnUse"
       gradientTransform="matrix(0.29726403,0.29726458,-0.49544006,0.49544098,17.95819,-1.8255832)"
       x1="-3.5762787e-07"
       y1="6.3499999"
       x2="12.7"
       y2="6.3499999" /><linearGradient
       inkscape:collect="always"
       xlink:href="#linearGradient1"
       id="linearGradient48"
       gradientUnits="userSpaceOnUse"
       gradientTransform="matrix(0.22294804,0.22294845,-0.37158004,0.37158073,9.0980576,7.9783366)"
       x1="-2.1166666"
       y1="6.3499999"
       x2="14.816666"
       y2="6.3499999" /><linearGradient
       inkscape:collect="always"
       xlink:href="#linearGradient3"
       id="linearGradient49"
       gradientUnits="userSpaceOnUse"
       gradientTransform="matrix(0.29726403,0.29726458,-0.49544006,0.49544098,9.4126619,6.7199176)"
       x1="-3.5762787e-07"
       y1="6.3499999"
       x2="12.7"
       y2="6.3499999" /><linearGradient
       inkscape:collect="always"
       xlink:href="#linearGradient3"
       id="linearGradient54"
       gradientUnits="userSpaceOnUse"
       gradientTransform="matrix(0.29726403,0.29726458,-0.49544006,0.49544098,12.261094,3.8714802)"
       x1="-3.5762787e-07"
       y1="6.3499999"
       x2="12.7"
       y2="6.3499999" /><linearGradient
       inkscape:collect="always"
       xlink:href="#linearGradient1"
       id="linearGradient55"
       gradientUnits="userSpaceOnUse"
       gradientTransform="matrix(0.22294804,0.22294845,-0.37158004,0.37158073,11.94649,5.1298983)"
       x1="-2.1166666"
       y1="6.3499999"
       x2="14.816666"
       y2="6.3499999" /><linearGradient
       inkscape:collect="always"
       xlink:href="#linearGradient3"
       id="linearGradient56"
       gradientUnits="userSpaceOnUse"
       gradientTransform="matrix(0.29726403,0.29726458,-0.49544006,0.49544098,15.109527,1.0230427)"
       x1="-3.5762787e-07"
       y1="6.3499999"
       x2="12.7"
       y2="6.3499999" /><linearGradient
       inkscape:collect="always"
       xlink:href="#linearGradient1"
       id="linearGradient57"
       gradientUnits="userSpaceOnUse"
       gradientTransform="matrix(0.22294804,0.22294845,-0.37158004,0.37158073,14.794922,2.2814608)"
       x1="-2.1166666"
       y1="6.3499999"
       x2="14.816666"
       y2="6.3499999" /></defs><g
     id="g57"
     style="opacity:0.2"><path
       id="path16"
       style="fill:url(#linearGradient2);stroke-width:0.520661;stroke-linecap:round;stroke-linejoin:round;paint-order:stroke fill markers"
       d="M 3.9436936,12.490637 C 3.4011979,12.838412 2.8681847,13.264336 2.3692675,13.763254 0.06500613,16.06752 -0.69063717,19.092186 0.69191947,20.474746 2.0744763,21.857305 5.0991366,21.10166 7.403398,18.797394 7.9029577,18.297834 8.3293845,17.7641 8.6774034,17.220879 7.4587769,18.002138 6.1916808,18.386106 5.1460711,18.306428 4.2280617,18.829096 3.3013884,18.88945 2.7893,18.377361 2.2771752,17.865235 2.33763,16.938133 2.8602326,16.01989 2.7805637,14.974798 3.1635343,13.708613 3.9436936,12.490637 Z" /><path
       id="path17"
       style="fill:url(#linearGradient4);stroke-width:0.520661;stroke-linecap:round;stroke-linejoin:round;paint-order:stroke fill markers"
       d="m 3.0813753,14.316113 a 2.6695098,4.4491823 44.999884 0 0 -0.082059,0.0758 2.6695098,4.4491823 44.999884 0 0 -1.2587063,5.03414 2.6695098,4.4491823 44.999884 0 0 5.0334354,-1.258709 2.6695098,4.4491823 44.999884 0 0 0.081357,-0.08415 C 5.5189793,18.494937 4.2889432,18.374901 3.5403453,17.626302 2.792752,16.878707 2.6717957,15.650638 3.0813691,14.316107 Z" /></g><g
     id="g58"><path
       style="fill:url(#linearGradient42);stroke-width:0.520659;stroke-linecap:round;stroke-linejoin:round;paint-order:stroke fill markers"
       d="M 20.474961,0.69170664 C 19.092404,-0.69085269 16.067556,0.06535991 13.763293,2.3696242 11.459032,4.6738886 10.70282,7.6987393 12.085377,9.0812981 13.467934,10.463858 16.492782,9.7076453 18.797044,7.4033797 21.101306,5.099115 21.857519,2.0742646 20.474961,0.69170664 Z M 18.378049,2.78862 c 0.702457,0.7024592 0.33103,2.1852665 -0.839732,3.3560299 C 16.367554,7.3154155 14.885714,7.6858756 14.183256,6.983416 13.480798,6.2809564 13.850677,4.7985367 15.021441,3.6277732 16.192204,2.4570085 17.675591,2.0861608 18.378049,2.78862 Z"
       id="path16-3" /><path
       style="fill:url(#linearGradient43);stroke-width:0.520659;stroke-linecap:round;stroke-linejoin:round;paint-order:stroke fill markers"
       d="M 18.167925,6.7736145 A 2.6695097,4.4491823 44.999887 0 1 13.134253,8.0320348 2.6695097,4.4491823 44.999887 0 1 14.39267,2.9983569 2.6695097,4.4491823 44.999887 0 1 19.426344,1.7399374 2.6695097,4.4491823 44.999887 0 1 18.167925,6.7736145 Z"
       id="path17-2" /></g><g
     id="g59"
     style="opacity:0.4"><path
       id="path16-4"
       style="fill:url(#linearGradient48);stroke-width:0.520659;stroke-linecap:round;stroke-linejoin:round;paint-order:stroke fill markers"
       d="m 6.7928211,9.6415032 c -0.542774,0.3478696 -1.0759574,0.7741488 -1.5751217,1.2733138 -2.3042613,2.304265 -3.0605999,5.329626 -1.6780435,6.712186 1.3825562,1.382559 4.4079127,0.626219 6.7121741,-1.678046 0.499164,-0.499166 0.925442,-1.032351 1.27331,-1.575125 -1.218782,0.78117 -2.4864501,1.164846 -3.5320275,1.084854 -0.9177447,0.522241 -1.8434437,0.582177 -2.3553807,0.07023 -0.5122092,-0.51221 -0.4519084,-1.43908 0.070933,-2.357471 -0.079366,-1.04527 0.303689,-2.311971 1.0841566,-3.5299488 z" /><path
       id="path17-27"
       style="fill:url(#linearGradient49);stroke-width:0.520659;stroke-linecap:round;stroke-linejoin:round;paint-order:stroke fill markers"
       d="m 5.929112,11.46837 a 2.6695097,4.4491823 44.999887 0 0 -0.082059,0.0758 2.6695097,4.4491823 44.999887 0 0 -1.2580111,5.033444 2.6695097,4.4491823 44.999887 0 0 5.0334352,-1.258709 2.6695097,4.4491823 44.999887 0 0 0.080669,-0.08276 C 8.3669388,15.647689 7.1365811,15.52706 6.3880878,14.778565 5.640495,14.03097 5.5195385,12.802903 5.929112,11.46837 Z" /></g><g
     id="g60"
     style="opacity:0.6"><path
       id="path53"
       style="fill:url(#linearGradient55);stroke-width:0.520659;stroke-linecap:round;stroke-linejoin:round;paint-order:stroke fill markers"
       d="M 9.6412533,6.7930641 C 9.0984792,7.1409337 8.5652958,7.5672129 8.0661316,8.0663775 5.7618703,10.370643 5.0055317,13.396004 6.388088,14.778564 c 1.3825563,1.382559 4.407913,0.626219 6.712174,-1.678046 0.499165,-0.499166 0.925442,-1.032351 1.273311,-1.575125 -1.218782,0.78117 -2.486451,1.164846 -3.532028,1.084854 C 9.9237999,13.132488 8.9981009,13.192423 8.486164,12.68048 7.9739547,12.16827 8.0342556,11.2414 8.5570966,10.323009 8.4777304,9.2777394 8.8607857,8.0110375 9.6412533,6.7930601 Z" /><path
       id="path54"
       style="fill:url(#linearGradient54);stroke-width:0.520659;stroke-linecap:round;stroke-linejoin:round;paint-order:stroke fill markers"
       d="m 8.7775442,8.6199307 a 2.6695097,4.4491823 44.999887 0 0 -0.082059,0.075804 2.6695097,4.4491823 44.999887 0 0 -1.2580112,5.0334443 2.6695097,4.4491823 44.999887 0 0 5.033435,-1.258709 2.6695097,4.4491823 44.999887 0 0 0.08067,-0.08276 C 11.215371,12.79925 9.9850133,12.678621 9.2365199,11.930126 8.4889271,11.182531 8.3679707,9.9544635 8.7775442,8.6199307 Z" /></g><g
     id="g61"
     style="opacity:0.8"><path
       id="path55"
       style="fill:url(#linearGradient57);stroke-width:0.520659;stroke-linecap:round;stroke-linejoin:round;paint-order:stroke fill markers"
       d="M 12.489685,3.9446267 C 11.946911,4.2924958 11.413728,4.7187746 10.914564,5.2179392 8.6103025,7.522204 7.8539639,10.547565 9.2365202,11.930125 c 1.3825558,1.382559 4.4079128,0.626219 6.7121748,-1.678046 0.499165,-0.4991665 0.925443,-1.0323509 1.273311,-1.5751248 -1.218782,0.7811693 -2.486452,1.1648457 -3.532029,1.0848535 -0.917745,0.5222413 -1.843444,0.5821763 -2.355381,0.070233 -0.512209,-0.51221 -0.451908,-1.4390803 0.07093,-2.3574712 -0.07937,-1.0452693 0.303689,-2.3119703 1.084156,-3.529947 z" /><path
       id="path56"
       style="fill:url(#linearGradient56);stroke-width:0.520659;stroke-linecap:round;stroke-linejoin:round;paint-order:stroke fill markers"
       d="m 11.625976,5.771492 a 2.6695097,4.4491823 44.999887 0 0 -0.08206,0.075804 2.6695097,4.4491823 44.999887 0 0 -1.258011,5.033444 2.6695097,4.4491823 44.999887 0 0 5.033436,-1.2587096 2.6695097,4.4491823 44.999887 0 0 0.08066,-0.082762 C 14.063804,9.9508112 12.833445,9.8301823 12.084952,9.081687 11.337359,8.334092 11.216403,7.1060244 11.625976,5.771492 Z" /></g></svg>
