<?xml version="1.0" encoding="UTF-8" standalone="no"?>
<!-- Created with Inkscape (http://www.inkscape.org/) -->

<svg
   width="12.7mm"
   height="12.7mm"
   viewBox="0 0 12.7 12.7"
   version="1.1"
   id="svg5"
   inkscape:version="1.2.2 (732a01da63, 2022-12-09)"
   sodipodi:docname="coin.svg"
   xmlns:inkscape="http://www.inkscape.org/namespaces/inkscape"
   xmlns:sodipodi="http://sodipodi.sourceforge.net/DTD/sodipodi-0.dtd"
   xmlns:xlink="http://www.w3.org/1999/xlink"
   xmlns="http://www.w3.org/2000/svg"
   xmlns:svg="http://www.w3.org/2000/svg">
  <sodipodi:namedview
     id="namedview7"
     pagecolor="#505050"
     bordercolor="#ffffff"
     borderopacity="1"
     inkscape:showpageshadow="0"
     inkscape:pageopacity="0"
     inkscape:pagecheckerboard="1"
     inkscape:deskcolor="#505050"
     inkscape:document-units="mm"
     showgrid="false"
     inkscape:zoom="11.313709"
     inkscape:cx="18.340582"
     inkscape:cy="18.826718"
     inkscape:window-width="1920"
     inkscape:window-height="1017"
     inkscape:window-x="-8"
     inkscape:window-y="-8"
     inkscape:window-maximized="1"
     inkscape:current-layer="layer1" />
  <defs
     id="defs2">
    <linearGradient
       inkscape:collect="always"
       id="linearGradient8842">
      <stop
         style="stop-color:#d97a00;stop-opacity:1;"
         offset="0"
         id="stop8838" />
      <stop
         style="stop-color:#ffc200;stop-opacity:1;"
         offset="1"
         id="stop8840" />
    </linearGradient>
    <linearGradient
       id="linearGradient15396"
       inkscape:swatch="solid">
      <stop
         style="stop-color:#891189;stop-opacity:1;"
         offset="0"
         id="stop15394" />
    </linearGradient>
    <linearGradient
       inkscape:collect="always"
       xlink:href="#linearGradient8842"
       id="linearGradient8844"
       x1="32.543869"
       y1="76.043816"
       x2="9.789463"
       y2="53.289532"
       gradientUnits="userSpaceOnUse"
       gradientTransform="matrix(0.46511136,0,0,0.46511385,6.2946056,29.562164)" />
  </defs>
  <g
     inkscape:label="Слой 1"
     inkscape:groupmode="layer"
     id="layer1"
     transform="translate(-9.7894627,-53.28953)">
    <path
       id="rect7678"
       style="fill:url(#linearGradient8844);fill-opacity:1;stroke-width:0;paint-order:stroke fill markers"
       d="m 16.139462,54.347863 c -0.348017,-10e-7 -0.695945,0.133279 -0.962613,0.39995 l -3.929051,3.92907 c -0.533336,0.53334 -0.533336,1.392139 0,1.925477 l 3.929051,3.928832 c 0.533338,0.53334 1.391888,0.533338 1.925225,-2e-6 l 3.929052,-3.928828 c 0.533337,-0.53334 0.533337,-1.392139 0,-1.925479 L 17.102074,54.74781 c -0.266669,-0.266668 -0.614597,-0.39995 -0.962612,-0.399947 z m 0,2.461227 c 0.186148,0 0.372197,0.07127 0.514833,0.213913 l 2.101647,2.101659 c 0.285275,0.285275 0.285273,0.744643 0,1.029916 l -2.101645,2.10142 c -0.285272,0.285275 -0.7444,0.285274 -1.029672,-10e-7 L 13.522978,60.15458 c -0.285273,-0.285275 -0.285272,-0.744643 0,-1.029917 l 2.101647,-2.101658 c 0.142637,-0.142637 0.328687,-0.213915 0.514837,-0.213915 z" />
  </g>
</svg>
