<?xml version="1.0" encoding="UTF-8" standalone="no"?>
<!-- Created with Inkscape (http://www.inkscape.org/) -->

<svg
   width="192"
   height="360"
   viewBox="0 0 50.799999 95.25"
   version="1.1"
   id="svg1"
   xml:space="preserve"
   sodipodi:docname="preview.svg"
   inkscape:version="1.4-dev (2fe0648, 2024-03-20, custom)"
   xmlns:inkscape="http://www.inkscape.org/namespaces/inkscape"
   xmlns:sodipodi="http://sodipodi.sourceforge.net/DTD/sodipodi-0.dtd"
   xmlns:xlink="http://www.w3.org/1999/xlink"
   xmlns="http://www.w3.org/2000/svg"
   xmlns:svg="http://www.w3.org/2000/svg"><sodipodi:namedview
     id="namedview1"
     pagecolor="#505050"
     bordercolor="#ffffff"
     borderopacity="1"
     inkscape:showpageshadow="0"
     inkscape:pageopacity="0"
     inkscape:pagecheckerboard="1"
     inkscape:deskcolor="#505050"
     showguides="true"
     inkscape:zoom="1"
     inkscape:cx="96.5"
     inkscape:cy="92.5"
     inkscape:window-width="1920"
     inkscape:window-height="1017"
     inkscape:window-x="-8"
     inkscape:window-y="-8"
     inkscape:window-maximized="1"
     inkscape:current-layer="svg1"><sodipodi:guide
       position="11.387534,53.578101"
       orientation="1,0"
       id="guide12"
       inkscape:locked="false" /><sodipodi:guide
       position="19.446871,57.386978"
       orientation="0,-1"
       id="guide16"
       inkscape:locked="false" /><sodipodi:guide
       position="19.446871,48.810104"
       orientation="0,-1"
       id="guide17"
       inkscape:locked="false" /><sodipodi:guide
       position="19.446871,40.233231"
       orientation="0,-1"
       id="guide18"
       inkscape:locked="false" /><sodipodi:guide
       position="19.446871,31.656358"
       orientation="0,-1"
       id="guide19"
       inkscape:locked="false" /></sodipodi:namedview><defs
     id="defs1"><linearGradient
       id="linearGradient14"><stop
         style="stop-color:#15181e;stop-opacity:1;"
         offset="0"
         id="stop13" /><stop
         style="stop-color:#13141b;stop-opacity:1;"
         offset="1"
         id="stop14" /></linearGradient><linearGradient
       id="linearGradient12"><stop
         style="stop-color:#111418;stop-opacity:1;"
         offset="0"
         id="stop11" /><stop
         style="stop-color:#0f0f15;stop-opacity:1;"
         offset="1"
         id="stop12" /></linearGradient><linearGradient
       id="linearGradient10"><stop
         style="stop-color:#0f1015;stop-opacity:1;"
         offset="0"
         id="stop9" /><stop
         style="stop-color:#0d0e12;stop-opacity:1;"
         offset="1"
         id="stop10" /></linearGradient><linearGradient
       id="linearGradient4"><stop
         style="stop-color:#0b0c0f;stop-opacity:1;"
         offset="0"
         id="stop4" /><stop
         style="stop-color:#09090c;stop-opacity:1;"
         offset="1"
         id="stop5" /></linearGradient><linearGradient
       xlink:href="#linearGradient12"
       id="linearGradient664"
       x1="2.4000001e-05"
       y1="237.0211"
       x2="2.4000001e-05"
       y2="440.2211"
       gradientUnits="userSpaceOnUse" /><linearGradient
       xlink:href="#linearGradient10"
       id="linearGradient666"
       x1="-3.0517578e-05"
       y1="101.55444"
       x2="-3.0517578e-05"
       y2="304.75446"
       gradientUnits="userSpaceOnUse" /><linearGradient
       xlink:href="#linearGradient14"
       id="linearGradient2"
       x1="-16.933348"
       y1="630.72107"
       x2="-16.933334"
       y2="833.92126"
       gradientUnits="userSpaceOnUse" /><linearGradient
       xlink:href="#linearGradient4"
       id="linearGradient5"
       x1="0"
       y1="-0.045552149"
       x2="0"
       y2="203.15445"
       gradientUnits="userSpaceOnUse" /><inkscape:path-effect
       effect="fillet_chamfer"
       id="path-effect10"
       is_visible="true"
       lpeversion="1"
       nodesatellites_param="F,0,0,1,0,0,0,1 @ F,0,0,1,0,0,0,1 @ F,0,0,1,0,0,0,1 @ F,0,0,1,0,0,0,1 @ F,0,0,1,0,0,0,1 @ F,0,0,1,0,0,0,1 @ F,0,0,1,0,0,0,1 @ F,0,0,1,0,0,0,1 @ F,0,0,1,0,0,0,1 @ F,0,0,1,0,0,0,1 @ F,0,0,1,0,0,0,1 @ F,0,0,1,0,0,0,1 | F,0,0,1,0,0,0,1 @ F,0,0,1,0,0,0,1 @ F,0,0,1,0,0,0,1 @ F,0,0,1,0,0,0,1"
       radius="0"
       unit="px"
       method="auto"
       mode="F"
       chamfer_steps="1"
       flexible="false"
       use_knot_distance="true"
       apply_no_radius="true"
       apply_with_radius="true"
       only_selected="false"
       hide_knots="false" /><inkscape:path-effect
       effect="fillet_chamfer"
       id="path-effect9"
       nodesatellites_param="F,0,0,1,0,0,0,1 @ F,0,0,1,0,0,0,1 @ F,0,0,1,0,0,0,1 @ F,0,0,1,0,0,0,1 @ F,0,0,1,0,0,0,1 @ F,0,0,1,0,0,0,1 @ F,0,0,1,0,0,0,1 @ F,0,0,1,0,0,0,1 @ F,0,0,1,0,0,0,1 @ F,0,0,1,0,0,0,1 @ F,0,0,1,0,0,0,1 @ F,0,0,1,0,0,0,1 | F,0,0,1,0,0,0,1 @ F,0,0,1,0,0,0,1 @ F,0,0,1,0,0,0,1 @ F,0,0,1,0,0,0,1"
       is_visible="true"
       lpeversion="1"
       radius="0"
       unit="px"
       method="auto"
       mode="F"
       chamfer_steps="1"
       flexible="false"
       use_knot_distance="true"
       apply_no_radius="true"
       apply_with_radius="true"
       only_selected="false"
       hide_knots="false" /><inkscape:path-effect
       effect="fillet_chamfer"
       id="path-effect8"
       is_visible="true"
       lpeversion="1"
       nodesatellites_param="F,0,0,1,0,0,0,1 @ F,0,0,1,0,0,0,1 @ F,0,0,1,0,0,0,1 @ F,0,0,1,0,0,0,1 @ F,0,0,1,0,0,0,1 @ F,0,0,1,0,0,0,1 @ F,0,0,1,0,0,0,1 @ F,0,0,1,0,0,0,1 @ F,0,0,1,0,0,0,1 @ F,0,0,1,0,0,0,1 @ F,0,0,1,0,0,0,1 @ F,0,0,1,0,0,0,1 | F,0,0,1,0,0,0,1 @ F,0,0,1,0,0,0,1 @ F,0,0,1,0,0,0,1 @ F,0,0,1,0,0,0,1"
       radius="0"
       unit="px"
       method="auto"
       mode="F"
       chamfer_steps="1"
       flexible="false"
       use_knot_distance="true"
       apply_no_radius="true"
       apply_with_radius="true"
       only_selected="false"
       hide_knots="false" /><inkscape:path-effect
       effect="fillet_chamfer"
       id="path-effect10-2"
       is_visible="true"
       lpeversion="1"
       nodesatellites_param="F,0,0,1,0,0,0,1 @ F,0,0,1,0,0,0,1 @ F,0,0,1,0,0,0,1 @ F,0,0,1,0,0,0,1 @ F,0,0,1,0,0,0,1 @ F,0,0,1,0,0,0,1 @ F,0,0,1,0,0,0,1 @ F,0,0,1,0,0,0,1 @ F,0,0,1,0,0,0,1 @ F,0,0,1,0,0,0,1 @ F,0,0,1,0,0,0,1 @ F,0,0,1,0,0,0,1 | F,0,0,1,0,0,0,1 @ F,0,0,1,0,0,0,1 @ F,0,0,1,0,0,0,1 @ F,0,0,1,0,0,0,1"
       radius="0"
       unit="px"
       method="auto"
       mode="F"
       chamfer_steps="1"
       flexible="false"
       use_knot_distance="true"
       apply_no_radius="true"
       apply_with_radius="true"
       only_selected="false"
       hide_knots="false" /><inkscape:path-effect
       effect="fillet_chamfer"
       id="path-effect9-1"
       nodesatellites_param="F,0,0,1,0,0,0,1 @ F,0,0,1,0,0,0,1 @ F,0,0,1,0,0,0,1 @ F,0,0,1,0,0,0,1 @ F,0,0,1,0,0,0,1 @ F,0,0,1,0,0,0,1 @ F,0,0,1,0,0,0,1 @ F,0,0,1,0,0,0,1 @ F,0,0,1,0,0,0,1 @ F,0,0,1,0,0,0,1 @ F,0,0,1,0,0,0,1 @ F,0,0,1,0,0,0,1 | F,0,0,1,0,0,0,1 @ F,0,0,1,0,0,0,1 @ F,0,0,1,0,0,0,1 @ F,0,0,1,0,0,0,1"
       is_visible="true"
       lpeversion="1"
       radius="0"
       unit="px"
       method="auto"
       mode="F"
       chamfer_steps="1"
       flexible="false"
       use_knot_distance="true"
       apply_no_radius="true"
       apply_with_radius="true"
       only_selected="false"
       hide_knots="false" /><inkscape:path-effect
       effect="fillet_chamfer"
       id="path-effect8-6"
       is_visible="true"
       lpeversion="1"
       nodesatellites_param="F,0,0,1,0,0,0,1 @ F,0,0,1,0,0,0,1 @ F,0,0,1,0,0,0,1 @ F,0,0,1,0,0,0,1 @ F,0,0,1,0,0,0,1 @ F,0,0,1,0,0,0,1 @ F,0,0,1,0,0,0,1 @ F,0,0,1,0,0,0,1 @ F,0,0,1,0,0,0,1 @ F,0,0,1,0,0,0,1 @ F,0,0,1,0,0,0,1 @ F,0,0,1,0,0,0,1 | F,0,0,1,0,0,0,1 @ F,0,0,1,0,0,0,1 @ F,0,0,1,0,0,0,1 @ F,0,0,1,0,0,0,1"
       radius="0"
       unit="px"
       method="auto"
       mode="F"
       chamfer_steps="1"
       flexible="false"
       use_knot_distance="true"
       apply_no_radius="true"
       apply_with_radius="true"
       only_selected="false"
       hide_knots="false" /><inkscape:path-effect
       effect="fillet_chamfer"
       id="path-effect1663"
       is_visible="true"
       lpeversion="1"
       nodesatellites_param="F,0,0,1,0,0.27528828,0,1 @ F,0,1,1,0,0.27528828,0,1 @ F,0,1,1,0,0.27528828,0,1"
       radius="0"
       unit="px"
       method="auto"
       mode="F"
       chamfer_steps="1"
       flexible="false"
       use_knot_distance="true"
       apply_no_radius="true"
       apply_with_radius="true"
       only_selected="false"
       hide_knots="false" /><inkscape:path-effect
       effect="fillet_chamfer"
       id="path-effect1662"
       is_visible="true"
       lpeversion="1"
       nodesatellites_param="F,0,0,1,0,0,0,1 @ F,0,0,1,0,0,0,1 @ F,0,0,1,0,0,0,1"
       radius="0"
       unit="px"
       method="auto"
       mode="F"
       chamfer_steps="1"
       flexible="false"
       use_knot_distance="true"
       apply_no_radius="true"
       apply_with_radius="true"
       only_selected="false"
       hide_knots="false" /><inkscape:path-effect
       effect="fillet_chamfer"
       id="path-effect10-3"
       is_visible="true"
       lpeversion="1"
       nodesatellites_param="F,0,0,1,0,0,0,1 @ F,0,0,1,0,0,0,1 @ F,0,0,1,0,0,0,1 @ F,0,0,1,0,0,0,1 @ F,0,0,1,0,0,0,1 @ F,0,0,1,0,0,0,1 @ F,0,0,1,0,0,0,1 @ F,0,0,1,0,0,0,1 @ F,0,0,1,0,0,0,1 @ F,0,0,1,0,0,0,1 @ F,0,0,1,0,0,0,1 @ F,0,0,1,0,0,0,1 | F,0,0,1,0,0,0,1 @ F,0,0,1,0,0,0,1 @ F,0,0,1,0,0,0,1 @ F,0,0,1,0,0,0,1"
       radius="0"
       unit="px"
       method="auto"
       mode="F"
       chamfer_steps="1"
       flexible="false"
       use_knot_distance="true"
       apply_no_radius="true"
       apply_with_radius="true"
       only_selected="false"
       hide_knots="false" /><inkscape:path-effect
       effect="fillet_chamfer"
       id="path-effect9-4"
       nodesatellites_param="F,0,0,1,0,0,0,1 @ F,0,0,1,0,0,0,1 @ F,0,0,1,0,0,0,1 @ F,0,0,1,0,0,0,1 @ F,0,0,1,0,0,0,1 @ F,0,0,1,0,0,0,1 @ F,0,0,1,0,0,0,1 @ F,0,0,1,0,0,0,1 @ F,0,0,1,0,0,0,1 @ F,0,0,1,0,0,0,1 @ F,0,0,1,0,0,0,1 @ F,0,0,1,0,0,0,1 | F,0,0,1,0,0,0,1 @ F,0,0,1,0,0,0,1 @ F,0,0,1,0,0,0,1 @ F,0,0,1,0,0,0,1"
       is_visible="true"
       lpeversion="1"
       radius="0"
       unit="px"
       method="auto"
       mode="F"
       chamfer_steps="1"
       flexible="false"
       use_knot_distance="true"
       apply_no_radius="true"
       apply_with_radius="true"
       only_selected="false"
       hide_knots="false" /><inkscape:path-effect
       effect="fillet_chamfer"
       id="path-effect8-1"
       is_visible="true"
       lpeversion="1"
       nodesatellites_param="F,0,0,1,0,0,0,1 @ F,0,0,1,0,0,0,1 @ F,0,0,1,0,0,0,1 @ F,0,0,1,0,0,0,1 @ F,0,0,1,0,0,0,1 @ F,0,0,1,0,0,0,1 @ F,0,0,1,0,0,0,1 @ F,0,0,1,0,0,0,1 @ F,0,0,1,0,0,0,1 @ F,0,0,1,0,0,0,1 @ F,0,0,1,0,0,0,1 @ F,0,0,1,0,0,0,1 | F,0,0,1,0,0,0,1 @ F,0,0,1,0,0,0,1 @ F,0,0,1,0,0,0,1 @ F,0,0,1,0,0,0,1"
       radius="0"
       unit="px"
       method="auto"
       mode="F"
       chamfer_steps="1"
       flexible="false"
       use_knot_distance="true"
       apply_no_radius="true"
       apply_with_radius="true"
       only_selected="false"
       hide_knots="false" /><inkscape:path-effect
       effect="fillet_chamfer"
       id="path-effect1663-3"
       is_visible="true"
       lpeversion="1"
       nodesatellites_param="F,0,0,1,0,0.27528828,0,1 @ F,0,1,1,0,0.27528828,0,1 @ F,0,1,1,0,0.27528828,0,1"
       radius="0"
       unit="px"
       method="auto"
       mode="F"
       chamfer_steps="1"
       flexible="false"
       use_knot_distance="true"
       apply_no_radius="true"
       apply_with_radius="true"
       only_selected="false"
       hide_knots="false" /><inkscape:path-effect
       effect="fillet_chamfer"
       id="path-effect1662-9"
       is_visible="true"
       lpeversion="1"
       nodesatellites_param="F,0,0,1,0,0,0,1 @ F,0,0,1,0,0,0,1 @ F,0,0,1,0,0,0,1"
       radius="0"
       unit="px"
       method="auto"
       mode="F"
       chamfer_steps="1"
       flexible="false"
       use_knot_distance="true"
       apply_no_radius="true"
       apply_with_radius="true"
       only_selected="false"
       hide_knots="false" /><inkscape:path-effect
       effect="fillet_chamfer"
       id="path-effect10-6"
       is_visible="true"
       lpeversion="1"
       nodesatellites_param="F,0,0,1,0,0,0,1 @ F,0,0,1,0,0,0,1 @ F,0,0,1,0,0,0,1 @ F,0,0,1,0,0,0,1 @ F,0,0,1,0,0,0,1 @ F,0,0,1,0,0,0,1 @ F,0,0,1,0,0,0,1 @ F,0,0,1,0,0,0,1 @ F,0,0,1,0,0,0,1 @ F,0,0,1,0,0,0,1 @ F,0,0,1,0,0,0,1 @ F,0,0,1,0,0,0,1 | F,0,0,1,0,0,0,1 @ F,0,0,1,0,0,0,1 @ F,0,0,1,0,0,0,1 @ F,0,0,1,0,0,0,1"
       radius="0"
       unit="px"
       method="auto"
       mode="F"
       chamfer_steps="1"
       flexible="false"
       use_knot_distance="true"
       apply_no_radius="true"
       apply_with_radius="true"
       only_selected="false"
       hide_knots="false" /><inkscape:path-effect
       effect="fillet_chamfer"
       id="path-effect9-7"
       nodesatellites_param="F,0,0,1,0,0,0,1 @ F,0,0,1,0,0,0,1 @ F,0,0,1,0,0,0,1 @ F,0,0,1,0,0,0,1 @ F,0,0,1,0,0,0,1 @ F,0,0,1,0,0,0,1 @ F,0,0,1,0,0,0,1 @ F,0,0,1,0,0,0,1 @ F,0,0,1,0,0,0,1 @ F,0,0,1,0,0,0,1 @ F,0,0,1,0,0,0,1 @ F,0,0,1,0,0,0,1 | F,0,0,1,0,0,0,1 @ F,0,0,1,0,0,0,1 @ F,0,0,1,0,0,0,1 @ F,0,0,1,0,0,0,1"
       is_visible="true"
       lpeversion="1"
       radius="0"
       unit="px"
       method="auto"
       mode="F"
       chamfer_steps="1"
       flexible="false"
       use_knot_distance="true"
       apply_no_radius="true"
       apply_with_radius="true"
       only_selected="false"
       hide_knots="false" /><inkscape:path-effect
       effect="fillet_chamfer"
       id="path-effect8-18"
       is_visible="true"
       lpeversion="1"
       nodesatellites_param="F,0,0,1,0,0,0,1 @ F,0,0,1,0,0,0,1 @ F,0,0,1,0,0,0,1 @ F,0,0,1,0,0,0,1 @ F,0,0,1,0,0,0,1 @ F,0,0,1,0,0,0,1 @ F,0,0,1,0,0,0,1 @ F,0,0,1,0,0,0,1 @ F,0,0,1,0,0,0,1 @ F,0,0,1,0,0,0,1 @ F,0,0,1,0,0,0,1 @ F,0,0,1,0,0,0,1 | F,0,0,1,0,0,0,1 @ F,0,0,1,0,0,0,1 @ F,0,0,1,0,0,0,1 @ F,0,0,1,0,0,0,1"
       radius="0"
       unit="px"
       method="auto"
       mode="F"
       chamfer_steps="1"
       flexible="false"
       use_knot_distance="true"
       apply_no_radius="true"
       apply_with_radius="true"
       only_selected="false"
       hide_knots="false" /></defs><g
     id="layer1"><g
       id="layer1-6"
       transform="matrix(0.17578125,0,0,0.17578125,-22.224998,0.0080075)"><rect
         style="fill:url(#linearGradient5);fill-opacity:1;stroke:none;stroke-width:0.79375;stroke-dasharray:none;stroke-opacity:1;paint-order:stroke fill markers"
         id="rect599"
         width="541.86664"
         height="541.86664"
         x="0"
         y="-0.045552149" /><path
         style="fill:url(#linearGradient666);fill-opacity:1;stroke:none;stroke-width:0.79375;stroke-dasharray:none;stroke-opacity:1;paint-order:stroke fill markers"
         d="M 8.4666666,135.42111 H 25.399997 a 8.4666666,8.4666666 135 0 0 8.466667,-8.46667 v -16.93333 a 8.4666666,8.4666666 135 0 1 8.466667,-8.46667 l 16.933332,0 a 8.4666666,8.4666666 45 0 1 8.466667,8.46667 v 50.8 a 8.4666666,8.4666666 45 0 0 8.466667,8.46667 h 16.933326 a 8.4666666,8.4666666 45 0 1 8.466667,8.46667 v 16.93331 a 8.4666666,8.4666666 45 0 0 8.46667,8.46667 l 16.93333,0 a 8.4666666,8.4666666 135 0 0 8.46667,-8.46667 v -50.79998 a 8.4666666,8.4666666 135 0 1 8.46667,-8.46667 h 16.93333 a 8.4666666,8.4666666 135 0 0 8.46667,-8.46667 V 110.02111 A 8.4666666,8.4666666 135 0 1 177.8,101.55444 h 16.93333 a 8.4666666,8.4666666 45 0 1 8.46667,8.46667 v 16.93333 a 8.4666666,8.4666666 135 0 1 -8.46667,8.46667 H 177.8 a 8.4666666,8.4666666 135 0 0 -8.46667,8.46667 v 16.93333 a 8.4666666,8.4666666 45 0 0 8.46667,8.46667 h 50.79998 a 8.4666666,8.4666666 135 0 0 8.46667,-8.46667 v -16.93333 a 8.4666666,8.4666666 135 0 1 8.46667,-8.46667 h 16.93334 a 8.4666604,8.4666604 45.000021 0 1 8.46666,8.46667 l -3e-5,50.79998 a 8.4666604,8.4666604 45.000021 0 0 8.46666,8.46667 h 16.93335 a 8.4666691,8.4666691 135.00001 0 0 8.46667,-8.46667 l 3e-5,-84.66665 a 8.4666691,8.4666691 135.00001 0 1 8.46667,-8.46667 h 16.93332 a 8.4666666,8.4666666 45 0 1 8.46667,8.46667 v 50.8 a 8.4666666,8.4666666 45 0 0 8.46667,8.46667 h 16.93333 a 8.4666666,8.4666666 45 0 1 8.46667,8.46667 l 0,16.93331 A 8.4666666,8.4666666 45 0 0 381,203.15443 h 16.93332 a 8.4666666,8.4666666 135 0 0 8.46667,-8.46667 v -50.79998 a 8.4666666,8.4666666 45 0 0 -8.46667,-8.46667 H 381 a 8.4666666,8.4666666 45 0 1 -8.46667,-8.46667 V 110.02111 A 8.4666666,8.4666666 135 0 1 381,101.55444 h 16.93332 a 8.4666666,8.4666666 45 0 1 8.46667,8.46667 l 0,16.93333 a 8.4666666,8.4666666 45 0 0 8.46667,8.46667 h 16.93333 a 8.4666591,8.4666591 134.99997 0 0 8.46666,-8.46667 l -1e-5,-16.93333 a 8.4666591,8.4666591 134.99997 0 1 8.46666,-8.46667 h 16.93333 a 8.4666666,8.4666666 45 0 1 8.46667,8.46667 l 0,50.8 a 8.4666666,8.4666666 45 0 0 8.46667,8.46667 h 16.93333 a 8.4666666,8.4666666 135 0 0 8.46667,-8.46667 l 0,-16.93333 a 8.4666666,8.4666666 135 0 1 8.46667,-8.46667 h 16.93332 a 8.4666672,8.4666672 44.999998 0 1 8.46667,8.46667 l 3e-5,397.93333 -541.866687999999,-3e-5 2.741666565e-5,-397.9333 A 8.4666672,8.4666672 135 0 1 8.4666666,135.42111 Z"
         id="path658" /><path
         style="fill:url(#linearGradient664);fill-opacity:1;stroke:none;stroke-width:0.79375;stroke-dasharray:none;stroke-opacity:1;paint-order:stroke fill markers"
         d="M 8.4666666,270.88775 H 59.266663 a 8.4666666,8.4666666 45 0 1 8.466667,8.46667 v 16.93333 a 8.4666666,8.4666666 45 0 0 8.466667,8.46667 h 16.933326 a 8.4666666,8.4666666 45 0 1 8.466667,8.46667 v 16.93332 a 8.4666666,8.4666666 45 0 0 8.46667,8.46667 h 16.93332 a 8.4666679,8.4666679 135 0 0 8.46667,-8.46667 l 1e-5,-50.79999 a 8.4666654,8.4666654 45.000004 0 0 -8.46667,-8.46667 h -16.93333 a 8.4666666,8.4666666 45 0 1 -8.46667,-8.46667 v -16.93332 a 8.4666666,8.4666666 135 0 1 8.46667,-8.46667 h 16.93332 a 8.4666666,8.4666666 45 0 1 8.46667,8.46667 v 16.93332 a 8.4666666,8.4666666 45 0 0 8.46667,8.46667 h 16.93333 a 8.4666691,8.4666691 135.00001 0 0 8.46667,-8.46667 l 1e-5,-16.9333 A 8.4666691,8.4666691 135.00001 0 1 177.8,237.02111 l 16.93332,0 a 8.4666679,8.4666679 44.999996 0 1 8.46667,8.46667 l 10e-6,50.79997 a 8.4666679,8.4666679 44.999996 0 0 8.46667,8.46667 h 16.93331 a 8.4666666,8.4666666 135 0 0 8.46667,-8.46667 l 0,-50.79998 a 8.4666666,8.4666666 135 0 1 8.46667,-8.46667 l 16.93331,0 a 8.4666666,8.4666666 45 0 1 8.46667,8.46667 v 50.8 a 8.4666666,8.4666666 45 0 0 8.46667,8.46667 h 16.9333 a 8.4666816,8.4666816 44.999949 0 1 8.46668,8.46667 l 4e-5,16.93333 a 8.4666816,8.4666816 44.999949 0 0 8.46668,8.46667 h 16.93332 a 8.4666666,8.4666666 135 0 0 8.46667,-8.46667 v -50.80002 a 8.4666666,8.4666666 135 0 1 8.46667,-8.46667 h 16.9333 a 8.4666741,8.4666741 135.00003 0 0 8.46668,-8.46667 l 1e-5,-16.93332 A 8.4666741,8.4666741 135.00003 0 1 381,237.02109 h 16.93332 a 8.4666666,8.4666666 45 0 1 8.46667,8.46667 l 0,16.93332 a 8.4666666,8.4666666 135 0 1 -8.46667,8.46667 h -16.93335 a 8.4666591,8.4666591 134.99997 0 0 -8.46666,8.46667 l 1e-5,16.93335 A 8.4666741,8.4666741 44.999975 0 0 381,304.75444 h 16.93332 a 8.4666666,8.4666666 45 0 1 8.46667,8.46667 v 16.9333 a 8.4666666,8.4666666 45 0 0 8.46667,8.46667 h 16.9333 a 8.4666666,8.4666666 135 0 0 8.46667,-8.46667 v -50.79999 a 8.4666666,8.4666666 135 0 1 8.46667,-8.46667 h 16.93333 a 8.4666666,8.4666666 45 0 1 8.46667,8.46667 l 0,16.93333 a 8.4666666,8.4666666 45 0 0 8.46667,8.46667 h 16.93333 a 8.4666666,8.4666666 135 0 0 8.46667,-8.46667 v -50.79998 a 8.4666666,8.4666666 135 0 1 8.46667,-8.46667 h 16.93332 a 8.4666666,8.4666666 45 0 1 8.46667,8.46667 v 287.86667 a 8.4666686,8.4666686 134.99999 0 1 -8.46667,8.46667 L 8.4666666,541.82124 A 8.4666646,8.4666646 44.999993 0 1 0,533.35457 V 279.35442 a 8.4666666,8.4666666 135 0 1 8.4666666,-8.46667 z"
         id="path657"
         transform="translate(-2.4e-5,1.3958073e-4)" /><path
         style="fill:url(#linearGradient2);fill-opacity:1;stroke:none;stroke-width:0.79375;stroke-dasharray:none;stroke-opacity:1;paint-order:stroke fill markers"
         d="M -8.4666674,630.72108 H 8.4666634 a 8.4666669,8.4666669 44.999999 0 1 8.4666666,8.46667 l 2e-6,50.79992 a 8.4666669,8.4666669 44.999999 0 0 8.466667,8.46667 h 16.93333 a 8.4666666,8.4666666 135 0 0 8.466667,-8.46667 v -16.93325 a 8.4666666,8.4666666 135 0 1 8.466667,-8.46667 h 16.93333 a 8.4666666,8.4666666 45 0 1 8.466667,8.46667 V 757.721 a 8.4666666,8.4666666 45 0 0 8.466667,8.46667 h 16.933333 a 8.4666666,8.4666666 135 0 0 8.46667,-8.46667 l 0,-50.79999 A 8.4666341,8.4666341 135.00011 0 1 127,698.45437 l 16.93333,7e-5 A 8.4666341,8.4666341 135.00011 0 0 152.4,689.9878 v -16.93333 a 8.4666666,8.4666666 135 0 1 8.46667,-8.46667 h 16.93332 a 8.4666666,8.4666666 45 0 1 8.46667,8.46667 v 16.9333 a 8.4666741,8.4666741 134.99997 0 1 -8.46667,8.46668 l -16.93332,1e-5 A 8.4666741,8.4666741 134.99997 0 0 152.4,706.92114 v 16.93327 a 8.4666566,8.4666566 44.999966 0 0 8.46667,8.46666 l 50.79998,-6e-5 a 8.4666779,8.4666779 134.99997 0 0 8.46667,-8.46668 l 1e-5,-50.79991 A 8.4666603,8.4666603 135.00003 0 1 228.6,664.58776 l 16.93328,10e-6 a 8.4666783,8.4666783 45.000011 0 1 8.46667,8.46668 l 5e-5,84.66663 a 8.4666783,8.4666783 45.000011 0 0 8.46667,8.46668 l 16.93333,10e-6 a 8.4666591,8.4666591 135.00003 0 0 8.46667,-8.46666 v -50.8 a 8.4666666,8.4666666 135 0 1 8.46667,-8.46667 h 16.93332 a 8.4666666,8.4666666 135 0 0 8.46667,-8.46667 V 673.05442 A 8.4666666,8.4666666 135 0 1 330.2,664.58775 h 16.9333 a 8.4666704,8.4666704 44.999987 0 1 8.46667,8.46667 l 3e-5,50.79994 a 8.4666904,8.4666904 45.000055 0 0 8.46667,8.46669 l 16.93332,4e-5 a 8.4666866,8.4666866 45.000068 0 1 8.46667,8.46669 V 757.721 a 8.4666666,8.4666666 45 0 0 8.46667,8.46667 h 16.9333 a 8.4666666,8.4666666 135 0 0 8.46667,-8.46667 v -50.79986 a 8.4666741,8.4666741 45.000025 0 0 -8.46667,-8.46668 l -16.9333,-1e-5 a 8.4666741,8.4666741 45.000025 0 1 -8.46667,-8.46668 v -16.93332 a 8.4666666,8.4666666 135 0 1 8.46667,-8.46667 h 16.9333 a 8.4666666,8.4666666 45 0 1 8.46667,8.46667 l 0,16.93335 a 8.4666666,8.4666666 45 0 0 8.46667,8.46667 h 16.93333 a 8.4666666,8.4666666 135 0 0 8.46667,-8.46667 v -50.80005 a 8.4666666,8.4666666 135 0 1 8.46667,-8.46667 h 16.93333 a 8.4666666,8.4666666 45 0 1 8.46667,8.46667 l 0,50.80002 a 8.4666666,8.4666666 45 0 0 8.46667,8.46667 l 16.93332,0 a 8.4666666,8.4666666 45 0 1 8.46667,8.46667 v 127.00002 l -541.866634,1.1e-4 0,-194.73349 a 8.4666666,8.4666666 135 0 1 8.4666666,-8.46667 z"
         id="path656"
         transform="translate(16.933334,-292.09947)" /></g><g
       style="fill:none"
       id="g1"
       transform="matrix(0.16536458,0,0,0.16536458,2.1166666,82.811143)"><path
         fill-rule="evenodd"
         clip-rule="evenodd"
         d="M 32,0 C 14.32,0 0,14.32 0,32 c 0,14.16 9.16,26.12 21.88,30.36 1.6,0.28 2.2,-0.68 2.2,-1.52 0,-0.76 -0.04,-3.28 -0.04,-5.96 C 16,56.36 13.92,52.92 13.28,51.12 12.92,50.2 11.36,47.36 10,46.6 8.88,46 7.28,44.52 9.96,44.48 c 2.52,-0.04 4.32,2.32 4.92,3.28 2.88,4.84 7.48,3.48 9.32,2.64 0.28,-2.08 1.12,-3.48 2.04,-4.28 -7.12,-0.8 -14.56,-3.56 -14.56,-15.8 0,-3.48 1.24,-6.36 3.28,-8.6 -0.32,-0.8 -1.44,-4.08 0.32,-8.48 0,0 2.68,-0.84 8.8,3.28 2.56,-0.72 5.28,-1.08 8,-1.08 2.72,0 5.44,0.36 8,1.08 6.12,-4.16 8.8,-3.28 8.8,-3.28 1.76,4.4 0.64,7.68 0.32,8.48 2.04,2.24 3.28,5.08 3.28,8.6 0,12.28 -7.48,15 -14.6,15.8 1.16,1 2.16,2.92 2.16,5.92 0,4.28 -0.04,7.72 -0.04,8.8 0,0.84 0.6,1.84 2.2,1.52 C 54.84,58.12 64,46.12 64,32 64,14.32 49.68,0 32,0 Z"
         fill="#1B1F23"
         id="path1"
         style="fill:#ffffff;fill-opacity:1;stroke-width:4" /></g><g
       id="g7"
       transform="matrix(0.16536458,0,0,0.16536458,39.333331,82.549999)"><path
         style="fill:none;fill-opacity:1;stroke:#ffffff;stroke-width:7;stroke-dasharray:none;stroke-opacity:1;paint-order:stroke fill markers"
         id="path3"
         transform="rotate(-90)"
         d="M -10.958906,31.223593 A 21.820395,21.820395 0 0 1 -24.428997,51.383009 21.820395,21.820395 0 0 1 -48.20865,46.652942" /><path
         style="fill:none;fill-opacity:1;stroke:#ffffff;stroke-width:7;stroke-dasharray:none;stroke-opacity:1;paint-order:stroke fill markers"
         id="path5"
         transform="rotate(90)"
         d="M 53.041094,-32.776409 A 21.820395,21.820395 0 0 1 39.571003,-12.616993 21.820395,21.820395 0 0 1 15.79135,-17.34706" /><path
         style="fill:#ffffff;fill-opacity:1;stroke-width:12;paint-order:stroke fill markers"
         id="path6"
         d="m -36.185328,53.706294 27.5779364,-15.922127 -1.5e-6,31.844257 z"
         transform="matrix(-0.45212945,0,0,-0.76475706,22.650354,92.895708)" /><path
         style="fill:#ffffff;fill-opacity:1;stroke-width:12;paint-order:stroke fill markers"
         id="path7"
         d="m -36.185328,53.706294 27.5779364,-15.922127 -1.5e-6,31.844257 z"
         transform="matrix(0.45212945,0,0,0.76475706,41.349646,-28.895709)" /></g><path
       d="m 43.391666,2.1166666 a 5.2916666,5.2916666 0 1 0 5.291667,5.291667 5.2916666,5.2916666 0 0 0 -5.291667,-5.291667 z m 4.475239,4.577292 c 0,0 -0.0189,0 -0.02646,0 a 7.4158931,7.4158931 0 0 1 -1.42497,0.635 7.2836012,7.2836012 0 0 0 -1.088572,-4.017887 4.5357143,4.5357143 0 0 1 2.54,3.382887 z m -6.743096,0.714375 c 0,-2.199822 0.831548,-4.093483 1.889882,-4.463899 v 4.841875 a 9.8273812,9.8273812 0 0 1 -1.889882,-0.241905 c 0,-0.05292 0,-0.09449 0,-0.136071 z m 1.889882,1.133928 v 3.3413104 c -0.907144,-0.32128 -1.651757,-1.757589 -1.840745,-3.5567564 a 10.79878,10.79878 0 0 0 1.840745,0.215446 z m 0.755952,3.3413104 V 8.5422616 a 10.79878,10.79878 0 0 0 1.840744,-0.215446 c -0.188988,1.7878274 -0.933601,3.2392564 -1.840744,3.5454174 z m 0,-4.0972624 v -4.841875 c 1.058333,0.377976 1.889881,2.267857 1.889881,4.463899 0,0.04158 0,0.08315 0,0.124732 a 9.8273812,9.8273812 0 0 1 -1.889881,0.253244 z m -2.313214,-4.475238 a 7.2836012,7.2836012 0 0 0 -1.088572,4.017887 7.4158931,7.4158931 0 0 1 -1.42875,-0.623661 c 0,0 0,0 -0.02646,0 a 4.5357143,4.5357143 0 0 1 2.54378,-3.394226 z m -2.600477,4.203095 a 8.41375,8.41375 0 0 0 1.538364,0.608542 6.9396431,6.9396431 0 0 0 1.058333,3.4017854 4.5357143,4.5357143 0 0 1 -2.596697,-4.0103274 z m 6.470952,3.9914294 a 6.9396431,6.9396431 0 0 0 1.058334,-3.3828874 8.41375,8.41375 0 0 0 1.542143,-0.608542 4.5357143,4.5357143 0 0 1 -2.600477,3.9914294 z"
       id="path1-9"
       style="fill:#ffffff;fill-opacity:1;stroke-width:0.165364" /></g><g
     style="fill:none"
     id="g6"
     transform="matrix(8.8194444,0,0,8.8194444,154.88585,138.37708)"><path
       id="path10-1"
       style="color:#000000;font-style:normal;font-variant:normal;font-weight:normal;font-stretch:normal;font-size:medium;line-height:normal;font-family:sans-serif;font-variant-ligatures:normal;font-variant-position:normal;font-variant-caps:normal;font-variant-numeric:normal;font-variant-alternates:normal;font-variant-east-asian:normal;font-feature-settings:normal;font-variation-settings:normal;text-indent:0;text-align:start;text-decoration-line:none;text-decoration-style:solid;text-decoration-color:#000000;letter-spacing:normal;word-spacing:normal;text-transform:none;writing-mode:lr-tb;direction:ltr;text-orientation:mixed;dominant-baseline:auto;baseline-shift:baseline;text-anchor:start;white-space:normal;shape-padding:0;shape-margin:0;inline-size:0;clip-rule:nonzero;display:inline;overflow:visible;visibility:visible;isolation:auto;mix-blend-mode:normal;color-interpolation:sRGB;color-interpolation-filters:linearRGB;solid-color:#000000;solid-opacity:1;vector-effect:none;fill:#ffffff;fill-opacity:1;fill-rule:nonzero;stroke:none;stroke-width:0.821662;stroke-linecap:round;stroke-linejoin:round;stroke-miterlimit:4;stroke-dasharray:none;stroke-dashoffset:0;stroke-opacity:1;-inkscape-stroke:none;paint-order:stroke fill markers;color-rendering:auto;image-rendering:auto;shape-rendering:auto;text-rendering:auto;enable-background:accumulate;stop-color:#000000;stop-opacity:1"
       d="M 1.4039775,0.50703238 C 1.4039547,0.40822148 1.3412653,0.29981464 1.2557406,0.25032599 1.1847271,0.20923418 1.1324734,0.32076577 1.0096048,0.24982756 0.88673621,0.17888936 0.95715169,0.07785289 0.88603915,0.03690155 0.80059435,-0.01230333 0.67568762,-0.01229769 0.59023954,0.03690153 0.51912913,0.07784547 0.59017404,0.17848267 0.466654,0.249797 0.34367433,0.32079934 0.29174999,0.20890155 0.22077884,0.2498927 0.13507137,0.29939521 0.0723101,0.40805632 0.0723013,0.50703241 c -7.29e-6,0.0819744 0.1228071,0.0651099 0.12293479,0.21299118 1.2766e-4,0.1478813 -0.12277334,0.13136495 -0.12269404,0.2134244 9.548e-5,0.0988108 0.06266908,0.20729221 0.14823682,0.25670621 0.071042,0.041025 0.13737909,-0.062706 0.24611037,6.88e-5 0.1087313,0.062776 0.0522853,0.171963 0.12335045,0.2129226 0.0854264,0.049236 0.21026158,0.049043 0.29579961,0 0.0710356,-0.040727 0.0156105,-0.1495008 0.1241033,-0.2119952 0.108493,-0.062494 0.1746081,0.04004 0.2453543,-9.975e-4 0.085618,-0.04966 0.1484562,-0.158166 0.1484777,-0.25714313 1.77e-5,-0.0819611 -0.1228599,-0.0651083 -0.1228595,-0.21298941 5e-7,-0.14791838 0.1228813,-0.13102887 0.1228624,-0.2129912 z M 0.98463904,0.7200235 c 0,0.13613804 -0.11036161,0.24649964 -0.24649964,0.24649972 -0.13613804,0 -0.24649974,-0.11036168 -0.24649976,-0.24649972 -5e-8,-0.13613803 0.11036172,-0.24649976 0.24649979,-0.2464997 0.13613807,3e-8 0.24649961,0.11036169 0.24649961,0.2464997 z"
       sodipodi:nodetypes="aazaasaazaazaazaasasssss" /></g><g
     style="fill:none"
     id="g9"
     transform="matrix(5.8796285,0,0,5.8796285,7.0475485,51.841664)"><path
       id="path10-7"
       style="color:#000000;font-style:normal;font-variant:normal;font-weight:normal;font-stretch:normal;font-size:medium;line-height:normal;font-family:sans-serif;font-variant-ligatures:normal;font-variant-position:normal;font-variant-caps:normal;font-variant-numeric:normal;font-variant-alternates:normal;font-variant-east-asian:normal;font-feature-settings:normal;font-variation-settings:normal;text-indent:0;text-align:start;text-decoration-line:none;text-decoration-style:solid;text-decoration-color:#000000;letter-spacing:normal;word-spacing:normal;text-transform:none;writing-mode:lr-tb;direction:ltr;text-orientation:mixed;dominant-baseline:auto;baseline-shift:baseline;text-anchor:start;white-space:normal;shape-padding:0;shape-margin:0;inline-size:0;clip-rule:nonzero;display:inline;overflow:visible;visibility:visible;isolation:auto;mix-blend-mode:normal;color-interpolation:sRGB;color-interpolation-filters:linearRGB;solid-color:#000000;solid-opacity:1;vector-effect:none;fill:#ffffff;fill-opacity:1;fill-rule:nonzero;stroke:none;stroke-width:0.821662;stroke-linecap:round;stroke-linejoin:round;stroke-miterlimit:4;stroke-dasharray:none;stroke-dashoffset:0;stroke-opacity:1;-inkscape-stroke:none;paint-order:stroke fill markers;color-rendering:auto;image-rendering:auto;shape-rendering:auto;text-rendering:auto;enable-background:accumulate;stop-color:#000000;stop-opacity:1"
       d="M 1.4039775,0.50703238 C 1.4039547,0.40822148 1.3412653,0.29981464 1.2557406,0.25032599 1.1847271,0.20923418 1.1324734,0.32076577 1.0096048,0.24982756 0.88673621,0.17888936 0.95715169,0.07785289 0.88603915,0.03690155 0.80059435,-0.01230333 0.67568762,-0.01229769 0.59023954,0.03690153 0.51912913,0.07784547 0.59017404,0.17848267 0.466654,0.249797 0.34367433,0.32079934 0.29174999,0.20890155 0.22077884,0.2498927 0.13507137,0.29939521 0.0723101,0.40805632 0.0723013,0.50703241 c -7.29e-6,0.0819744 0.1228071,0.0651099 0.12293479,0.21299118 1.2766e-4,0.1478813 -0.12277334,0.13136495 -0.12269404,0.2134244 9.548e-5,0.0988108 0.06266908,0.20729221 0.14823682,0.25670621 0.071042,0.041025 0.13737909,-0.062706 0.24611037,6.88e-5 0.1087313,0.062776 0.0522853,0.171963 0.12335045,0.2129226 0.0854264,0.049236 0.21026158,0.049043 0.29579961,0 0.0710356,-0.040727 0.0156105,-0.1495008 0.1241033,-0.2119952 0.108493,-0.062494 0.1746081,0.04004 0.2453543,-9.975e-4 0.085618,-0.04966 0.1484562,-0.158166 0.1484777,-0.25714313 1.77e-5,-0.0819611 -0.1228599,-0.0651083 -0.1228595,-0.21298941 5e-7,-0.14791838 0.1228813,-0.13102887 0.1228624,-0.2129912 z M 0.98463904,0.7200235 c 0,0.13613804 -0.11036161,0.24649964 -0.24649964,0.24649972 -0.13613804,0 -0.24649974,-0.11036168 -0.24649976,-0.24649972 -5e-8,-0.13613803 0.11036172,-0.24649976 0.24649979,-0.2464997 0.13613807,3e-8 0.24649961,0.11036169 0.24649961,0.2464997 z"
       sodipodi:nodetypes="aazaasaazaazaazaasasssss" /></g><g
     style="fill:none"
     id="g10"
     transform="matrix(5.8796312,0,0,5.8796312,7.1542007,60.947758)"><path
       style="opacity:1;fill:none;fill-opacity:1;stroke:#ffffff;stroke-width:0.184712;stroke-linecap:round;stroke-linejoin:round;stroke-dasharray:none;stroke-opacity:1;paint-order:stroke fill markers"
       d="M 0.84070068,1.0144512 V 1.191122 H 0.092356 V 0.24887798 l 0.74834468,3.24e-5 v 0.17663754"
       id="path1665-2"
       sodipodi:nodetypes="cccccc" /><path
       id="path1667-4"
       style="opacity:1;fill:none;fill-opacity:1;stroke:#ffffff;stroke-width:0.184712;stroke-linecap:round;stroke-linejoin:round;stroke-dasharray:none;stroke-opacity:1;paint-order:stroke fill markers"
       d="M 1.3476436,0.72002217 1.1223357,0.9261381 M 0.60734582,0.72002217 H 1.3476436 L 1.1223357,0.51390628" /></g><g
     style="fill:none"
     id="g11"
     transform="matrix(5.8796276,0,0,5.8796276,7.1542029,42.423404)"><circle
       style="opacity:1;fill:#ffffff;fill-opacity:1;stroke:none;stroke-width:0.14164;stroke-linecap:round;stroke-linejoin:round;stroke-dasharray:none;stroke-opacity:1;paint-order:stroke fill markers"
       id="path5-7"
       cx="0.51934528"
       cy="1.2223812"
       r="0.11803308" /><circle
       style="opacity:1;fill:#ffffff;fill-opacity:1;stroke:none;stroke-width:0.14164;stroke-linecap:round;stroke-linejoin:round;stroke-dasharray:none;stroke-opacity:1;paint-order:stroke fill markers"
       id="circle5-8"
       cx="1.1331173"
       cy="1.2223812"
       r="0.11803308" /><path
       style="opacity:1;fill:none;fill-opacity:1;stroke:#ffffff;stroke-width:0.14164;stroke-linecap:round;stroke-linejoin:round;stroke-dasharray:none;stroke-opacity:1;paint-order:stroke fill markers"
       d="m 0.07081962,0.27663092 h 0.18885292 l 0.062951,0.23606615"
       id="path6-4" /><path
       style="opacity:1;fill:#ffffff;fill-opacity:1;stroke:#ffffff;stroke-width:0.14164;stroke-linecap:round;stroke-linejoin:round;stroke-dasharray:none;stroke-opacity:1;paint-order:stroke fill markers"
       d="M 0.32262352,0.51269707 H 1.3691834 L 1.2039371,0.93580276 H 0.44852546 Z"
       id="path7-9"
       sodipodi:nodetypes="ccccc" /></g><g
     style="fill:none"
     id="g12"
     transform="matrix(5.8796198,0,0,5.8796198,7.0058276,33.629695)"><path
       id="path1662-8"
       style="color:#000000;font-style:normal;font-variant:normal;font-weight:normal;font-stretch:normal;font-size:medium;line-height:normal;font-family:sans-serif;font-variant-ligatures:normal;font-variant-position:normal;font-variant-caps:normal;font-variant-numeric:normal;font-variant-alternates:normal;font-variant-east-asian:normal;font-feature-settings:normal;font-variation-settings:normal;text-indent:0;text-align:start;text-decoration-line:none;text-decoration-style:solid;text-decoration-color:#000000;letter-spacing:normal;word-spacing:normal;text-transform:none;writing-mode:lr-tb;direction:ltr;text-orientation:mixed;dominant-baseline:auto;baseline-shift:baseline;text-anchor:start;white-space:normal;shape-padding:0;shape-margin:0;inline-size:0;clip-rule:nonzero;display:inline;overflow:visible;visibility:visible;isolation:auto;mix-blend-mode:normal;color-interpolation:sRGB;color-interpolation-filters:linearRGB;solid-color:#000000;solid-opacity:1;vector-effect:none;fill:#ffffff;fill-opacity:1;fill-rule:nonzero;stroke:none;stroke-linecap:round;stroke-linejoin:round;stroke-miterlimit:4;stroke-dasharray:none;stroke-dashoffset:0;stroke-opacity:1;-inkscape-stroke:none;paint-order:stroke fill markers;color-rendering:auto;image-rendering:auto;shape-rendering:auto;text-rendering:auto;enable-background:accumulate;stop-color:#000000;stop-opacity:1"
       inkscape:transform-center-x="-0.19696002"
       d="M 1.5420773,0.46503187 H 0.3779629 A 0.15893799,0.15893799 120.00004 0 0 0.24031847,0.70343868 L 0.82237625,1.7115952 a 0.15893731,0.15893731 2.8937885e-7 0 0 0.27528775,0 L 1.6797217,0.70343868 A 0.15893799,0.15893799 59.999965 0 0 1.5420773,0.46503187 Z"
       transform="matrix(0,-0.7958162,0.7958162,0,-0.15248245,1.4839996)"
       sodipodi:nodetypes="cccc"
       inkscape:path-effect="#path-effect1663-3"
       inkscape:original-d="M 1.8173656,0.46503187 H 0.10267462 L 0.9600201,1.950002 Z" /></g><rect
     style="fill:#ffffff;stroke-width:1.37481;stroke-linecap:round;stroke-linejoin:round;paint-order:stroke fill markers"
     id="rect12"
     width="25.4"
     height="2.1166666"
     x="19.446871"
     y="36.804688"
     rx="1.0583333"
     ry="1.0583333" /><rect
     style="fill:#ffffff;stroke-width:1.37481;stroke-linecap:round;stroke-linejoin:round;paint-order:stroke fill markers"
     id="rect13"
     width="25.4"
     height="2.1166666"
     x="19.446871"
     y="45.910683"
     rx="1.0583333"
     ry="1.0583333" /><rect
     style="fill:#ffffff;stroke-width:1.37481;stroke-linecap:round;stroke-linejoin:round;paint-order:stroke fill markers"
     id="rect14"
     width="25.4"
     height="2.1166666"
     x="19.446871"
     y="55.016663"
     rx="1.0583333"
     ry="1.0583333" /><rect
     style="fill:#ffffff;stroke-width:1.37481;stroke-linecap:round;stroke-linejoin:round;paint-order:stroke fill markers"
     id="rect15"
     width="25.4"
     height="2.1166666"
     x="19.446871"
     y="64.122757"
     rx="1.0583333"
     ry="1.0583333" /></svg>
