<?xml version="1.0" encoding="UTF-8" standalone="no"?>
<svg
   width="48"
   height="48"
   viewBox="0 0 48 48"
   fill="none"
   version="1.1"
   id="svg1"
   sodipodi:docname="github.svg"
   inkscape:version="1.4-dev (2fe0648, 2024-03-20, custom)"
   xml:space="preserve"
   xmlns:inkscape="http://www.inkscape.org/namespaces/inkscape"
   xmlns:sodipodi="http://sodipodi.sourceforge.net/DTD/sodipodi-0.dtd"
   xmlns="http://www.w3.org/2000/svg"
   xmlns:svg="http://www.w3.org/2000/svg"><defs
     id="defs1" /><sodipodi:namedview
     id="namedview1"
     pagecolor="#505050"
     bordercolor="#ffffff"
     borderopacity="1"
     inkscape:showpageshadow="0"
     inkscape:pageopacity="0"
     inkscape:pagecheckerboard="1"
     inkscape:deskcolor="#505050"
     inkscape:zoom="11.171875"
     inkscape:cx="13.247553"
     inkscape:cy="29.314686"
     inkscape:window-width="1920"
     inkscape:window-height="1009"
     inkscape:window-x="-8"
     inkscape:window-y="-8"
     inkscape:window-maximized="1"
     inkscape:current-layer="svg1"
     showguides="false" /><path
     fill-rule="evenodd"
     clip-rule="evenodd"
     d="m 24,3.2873116 c -11.44376,0 -20.7126884,9.5033754 -20.7126884,21.2365914 0,9.397193 5.9290071,17.334369 14.1623004,20.148217 1.035635,0.18582 1.423998,-0.451278 1.423998,-1.008738 0,-0.504369 -0.02589,-2.176751 -0.02589,-3.955315 -5.204063,0.982192 -6.550388,-1.300741 -6.964642,-2.4953 -0.233017,-0.610552 -1.242761,-2.4953 -2.1230502,-2.999668 -0.7249441,-0.398186 -1.7605786,-1.380379 -0.025891,-1.406924 1.6311242,-0.02655 2.7962132,1.539652 3.1845762,2.17675 1.864142,3.212034 4.841591,2.309479 6.03257,1.752019 0.181236,-1.380379 0.724944,-2.30948 1.320434,-2.840394 -4.608573,-0.530915 -9.424273,-2.362572 -9.424273,-10.485568 0,-2.309479 0.802617,-4.220773 2.12305,-5.707333 -0.207126,-0.530916 -0.932071,-2.707666 0.207127,-5.627697 0,0 1.734688,-0.557461 5.69599,2.17675 1.657015,-0.477823 3.417593,-0.716735 5.178172,-0.716735 1.760578,0 3.521157,0.238912 5.178172,0.716735 3.961301,-2.760757 5.695989,-2.17675 5.695989,-2.17675 1.139198,2.920031 0.414254,5.096781 0.207127,5.627697 1.320434,1.48656 2.123051,3.371308 2.123051,5.707333 0,8.149542 -4.841591,9.954653 -9.450165,10.485568 0.750835,0.663643 1.398107,1.937839 1.398107,3.928769 0,2.840394 -0.02589,5.123328 -0.02589,5.840063 0,0.55746 0.388363,1.221104 1.423997,1.008738 C 38.783681,41.858272 44.712688,33.89455 44.712688,24.523903 44.712688,12.790687 35.44376,3.2873116 24,3.2873116 Z"
     fill="#1B1F23"
     id="path1"
     style="fill:#e8eaed;fill-opacity:1;stroke-width:2.62162" /></svg>
