<?xml version="1.0" encoding="UTF-8" standalone="no"?>
<!-- Created with Inkscape (http://www.inkscape.org/) -->

<svg
   width="69.849968"
   height="64"
   viewBox="0 0 18.481135 16.933332"
   version="1.1"
   id="svg1"
   xml:space="preserve"
   sodipodi:docname="heart.svg"
   inkscape:version="1.4 (86a8ad7, 2024-10-11)"
   xmlns:inkscape="http://www.inkscape.org/namespaces/inkscape"
   xmlns:sodipodi="http://sodipodi.sourceforge.net/DTD/sodipodi-0.dtd"
   xmlns:xlink="http://www.w3.org/1999/xlink"
   xmlns="http://www.w3.org/2000/svg"
   xmlns:svg="http://www.w3.org/2000/svg"><sodipodi:namedview
     id="namedview1"
     pagecolor="#505050"
     bordercolor="#ffffff"
     borderopacity="1"
     inkscape:showpageshadow="0"
     inkscape:pageopacity="0"
     inkscape:pagecheckerboard="1"
     inkscape:deskcolor="#505050"
     inkscape:zoom="5.6568543"
     inkscape:cx="12.727922"
     inkscape:cy="52.767843"
     inkscape:window-width="1920"
     inkscape:window-height="1009"
     inkscape:window-x="-8"
     inkscape:window-y="-8"
     inkscape:window-maximized="1"
     inkscape:current-layer="svg1"
     showguides="false" /><defs
     id="defs1"><linearGradient
       id="linearGradient24755"
       inkscape:collect="always"><stop
         style="stop-color:#ff5962;stop-opacity:1;"
         offset="0"
         id="stop24754" /><stop
         style="stop-color:#cc1532;stop-opacity:1;"
         offset="1"
         id="stop24755" /></linearGradient><inkscape:path-effect
       effect="fillet_chamfer"
       id="path-effect129"
       is_visible="true"
       lpeversion="1"
       nodesatellites_param="F,0,0,1,0,0,0,1 @ F,0,0,1,0,0,0,1 @ F,0,0,1,0,0,0,1 @ F,0,0,1,0,0,0,1 | F,0,0,1,0,0,0,1 @ F,0,0,1,0,0,0,1 @ F,0,0,1,0,0,0,1 @ F,0,0,1,0,0,0,1 | F,0,0,1,0,0,0,1 @ F,0,0,1,0,0,0,1 @ F,0,0,1,0,0,0,1 @ F,0,0,1,0,0,0,1 | F,0,0,1,0,0,0,1 @ F,0,0,1,0,0,0,1 @ F,0,0,1,0,0,0,1 @ F,0,0,1,0,0,0,1 | F,0,0,1,0,0,0,1 @ F,0,0,1,0,0,0,1 @ F,0,0,1,0,0,0,1 @ F,0,0,1,0,0,0,1 | F,0,0,1,0,0,0,1 @ F,0,0,1,0,0,0,1 @ F,0,0,1,0,0,0,1 @ F,0,0,1,0,0,0,1 | F,0,0,1,0,0,0,1 @ F,0,0,1,0,0,0,1 @ F,0,0,1,0,0,0,1 @ F,0,0,1,0,0,0,1 | F,0,0,1,0,0,0,1 @ F,0,0,1,0,0,0,1 @ F,0,0,1,0,0,0,1 @ F,0,0,1,0,0,0,1 | F,0,0,1,0,0,0,1 @ F,0,0,1,0,0,0,1 @ F,0,0,1,0,0,0,1 @ F,0,0,1,0,0,0,1 | F,0,0,1,0,0,0,1 @ F,0,0,1,0,0,0,1 @ F,0,0,1,0,0,0,1 @ F,0,0,1,0,0,0,1 | F,0,0,1,0,0,0,1 @ F,0,0,1,0,0,0,1 @ F,0,0,1,0,0,0,1 @ F,0,0,1,0,0,0,1 | F,0,0,1,0,0,0,1 @ F,0,0,1,0,0,0,1 @ F,0,0,1,0,0,0,1 @ F,0,0,1,0,0,0,1 | F,0,0,1,0,0,0,1 @ F,0,0,1,0,0,0,1 @ F,0,0,1,0,0,0,1 @ F,0,0,1,0,0,0,1 | F,0,0,1,0,0,0,1 @ F,0,0,1,0,0,0,1 @ F,0,0,1,0,0,0,1 @ F,0,0,1,0,0,0,1 | F,0,0,1,0,0,0,1 @ F,0,0,1,0,0,0,1 @ F,0,0,1,0,0,0,1 @ F,0,0,1,0,0,0,1 | F,0,0,1,0,0,0,1 @ F,0,0,1,0,0,0,1 @ F,0,0,1,0,0,0,1 @ F,0,0,1,0,0,0,1 | F,0,0,1,0,0,0,1 @ F,0,0,1,0,0,0,1 @ F,0,0,1,0,0,0,1 @ F,0,0,1,0,0,0,1 | F,0,0,1,0,0,0,1 @ F,0,0,1,0,0,0,1 @ F,0,0,1,0,0,0,1 @ F,0,0,1,0,0,0,1 | F,0,0,1,0,0,0,1 @ F,0,0,1,0,0,0,1 @ F,0,0,1,0,0,0,1 @ F,0,0,1,0,0,0,1 | F,0,0,1,0,0,0,1 @ F,0,0,1,0,0,0,1 @ F,0,0,1,0,0,0,1 @ F,0,0,1,0,0,0,1 | F,0,0,1,0,0,0,1 @ F,0,0,1,0,0,0,1 @ F,0,0,1,0,0,0,1 @ F,0,0,1,0,0,0,1 | F,0,0,1,0,0,0,1 @ F,0,0,1,0,0,0,1 @ F,0,0,1,0,0,0,1 @ F,0,0,1,0,0,0,1 | F,0,0,1,0,0,0,1 @ F,0,0,1,0,0,0,1 @ F,0,0,1,0,0,0,1 @ F,0,0,1,0,0,0,1 | F,0,0,1,0,0,0,1 @ F,0,0,1,0,0,0,1 @ F,0,0,1,0,0,0,1 @ F,0,0,1,0,0,0,1 | F,0,0,1,0,0,0,1 @ F,0,0,1,0,0,0,1 @ F,0,0,1,0,0,0,1 @ F,0,0,1,0,0,0,1 | F,0,0,1,0,0,0,1 @ F,0,0,1,0,0,0,1 @ F,0,0,1,0,0,0,1 @ F,0,0,1,0,0,0,1 | F,0,0,1,0,0,0,1 @ F,0,0,1,0,0,0,1 @ F,0,0,1,0,0,0,1 @ F,0,0,1,0,0,0,1 | F,0,0,1,0,0,0,1 @ F,0,0,1,0,0,0,1 @ F,0,0,1,0,0,0,1 @ F,0,0,1,0,0,0,1 | F,0,0,1,0,0,0,1 @ F,0,0,1,0,0,0,1 @ F,0,0,1,0,0,0,1 @ F,0,0,1,0,0,0,1"
       radius="0"
       unit="px"
       method="auto"
       mode="F"
       chamfer_steps="1"
       flexible="false"
       use_knot_distance="true"
       apply_no_radius="true"
       apply_with_radius="true"
       only_selected="false"
       hide_knots="false" /><inkscape:path-effect
       effect="fillet_chamfer"
       id="path-effect128"
       is_visible="true"
       lpeversion="1"
       nodesatellites_param="F,0,0,1,0,0,0,1 @ F,0,0,1,0,0,0,1 @ F,0,0,1,0,0,0,1 @ F,0,0,1,0,0,0,1 | F,0,0,1,0,0,0,1 @ F,0,0,1,0,0,0,1 @ F,0,0,1,0,0,0,1 @ F,0,0,1,0,0,0,1 | F,0,0,1,0,0,0,1 @ F,0,0,1,0,0,0,1 @ F,0,0,1,0,0,0,1 @ F,0,0,1,0,0,0,1 | F,0,0,1,0,0,0,1 @ F,0,0,1,0,0,0,1 @ F,0,0,1,0,0,0,1 @ F,0,0,1,0,0,0,1 | F,0,0,1,0,0,0,1 @ F,0,0,1,0,0,0,1 @ F,0,0,1,0,0,0,1 @ F,0,0,1,0,0,0,1 | F,0,0,1,0,0,0,1 @ F,0,0,1,0,0,0,1 @ F,0,0,1,0,0,0,1 @ F,0,0,1,0,0,0,1 | F,0,0,1,0,0,0,1 @ F,0,0,1,0,0,0,1 @ F,0,0,1,0,0,0,1 @ F,0,0,1,0,0,0,1 | F,0,0,1,0,0,0,1 @ F,0,0,1,0,0,0,1 @ F,0,0,1,0,0,0,1 @ F,0,0,1,0,0,0,1 | F,0,0,1,0,0,0,1 @ F,0,0,1,0,0,0,1 @ F,0,0,1,0,0,0,1 @ F,0,0,1,0,0,0,1 | F,0,0,1,0,0,0,1 @ F,0,0,1,0,0,0,1 @ F,0,0,1,0,0,0,1 @ F,0,0,1,0,0,0,1 | F,0,0,1,0,0,0,1 @ F,0,0,1,0,0,0,1 @ F,0,0,1,0,0,0,1 @ F,0,0,1,0,0,0,1 | F,0,0,1,0,0,0,1 @ F,0,0,1,0,0,0,1 @ F,0,0,1,0,0,0,1 @ F,0,0,1,0,0,0,1 | F,0,0,1,0,0,0,1 @ F,0,0,1,0,0,0,1 @ F,0,0,1,0,0,0,1 @ F,0,0,1,0,0,0,1 | F,0,0,1,0,0,0,1 @ F,0,0,1,0,0,0,1 @ F,0,0,1,0,0,0,1 @ F,0,0,1,0,0,0,1 | F,0,0,1,0,0,0,1 @ F,0,0,1,0,0,0,1 @ F,0,0,1,0,0,0,1 @ F,0,0,1,0,0,0,1 | F,0,0,1,0,0,0,1 @ F,0,0,1,0,0,0,1 @ F,0,0,1,0,0,0,1 @ F,0,0,1,0,0,0,1 | F,0,0,1,0,0,0,1 @ F,0,0,1,0,0,0,1 @ F,0,0,1,0,0,0,1 @ F,0,0,1,0,0,0,1 | F,0,0,1,0,0,0,1 @ F,0,0,1,0,0,0,1 @ F,0,0,1,0,0,0,1 @ F,0,0,1,0,0,0,1 | F,0,0,1,0,0,0,1 @ F,0,0,1,0,0,0,1 @ F,0,0,1,0,0,0,1 @ F,0,0,1,0,0,0,1 | F,0,0,1,0,0,0,1 @ F,0,0,1,0,0,0,1 @ F,0,0,1,0,0,0,1 @ F,0,0,1,0,0,0,1 | F,0,0,1,0,0,0,1 @ F,0,0,1,0,0,0,1 @ F,0,0,1,0,0,0,1 @ F,0,0,1,0,0,0,1 | F,0,0,1,0,0,0,1 @ F,0,0,1,0,0,0,1 @ F,0,0,1,0,0,0,1 @ F,0,0,1,0,0,0,1 | F,0,0,1,0,0,0,1 @ F,0,0,1,0,0,0,1 @ F,0,0,1,0,0,0,1 @ F,0,0,1,0,0,0,1 | F,0,0,1,0,0,0,1 @ F,0,0,1,0,0,0,1 @ F,0,0,1,0,0,0,1 @ F,0,0,1,0,0,0,1 | F,0,0,1,0,0,0,1 @ F,0,0,1,0,0,0,1 @ F,0,0,1,0,0,0,1 @ F,0,0,1,0,0,0,1 | F,0,0,1,0,0,0,1 @ F,0,0,1,0,0,0,1 @ F,0,0,1,0,0,0,1 @ F,0,0,1,0,0,0,1 | F,0,0,1,0,0,0,1 @ F,0,0,1,0,0,0,1 @ F,0,0,1,0,0,0,1 @ F,0,0,1,0,0,0,1 | F,0,0,1,0,0,0,1 @ F,0,0,1,0,0,0,1 @ F,0,0,1,0,0,0,1 @ F,0,0,1,0,0,0,1 | F,0,0,1,0,0,0,1 @ F,0,0,1,0,0,0,1 @ F,0,0,1,0,0,0,1 @ F,0,0,1,0,0,0,1"
       radius="0"
       unit="px"
       method="auto"
       mode="F"
       chamfer_steps="1"
       flexible="false"
       use_knot_distance="true"
       apply_no_radius="true"
       apply_with_radius="true"
       only_selected="false"
       hide_knots="false" /><linearGradient
       id="linearGradient13"><stop
         style="stop-color:#10173d;stop-opacity:1;"
         offset="0"
         id="stop17" /><stop
         style="stop-color:#2b3f67;stop-opacity:1;"
         offset="1"
         id="stop18" /></linearGradient><linearGradient
       id="linearGradient13-1"><stop
         style="stop-color:#344876;stop-opacity:1;"
         offset="0"
         id="stop20" /><stop
         style="stop-color:#445d89;stop-opacity:1;"
         offset="1"
         id="stop19" /></linearGradient><linearGradient
       id="linearGradient15"
       inkscape:swatch="gradient"><stop
         style="stop-color:#000000;stop-opacity:1;"
         offset="0.25000024"
         id="stop14" /><stop
         style="stop-color:#000000;stop-opacity:0;"
         offset="1"
         id="stop15" /></linearGradient><linearGradient
       id="linearGradient2"><stop
         style="stop-color:#9cc2e2;stop-opacity:1;"
         offset="0"
         id="stop3" /><stop
         style="stop-color:#7598d7;stop-opacity:1;"
         offset="1"
         id="stop4" /></linearGradient><linearGradient
       id="linearGradient1"><stop
         style="stop-color:#112662;stop-opacity:1;"
         offset="0.40000001"
         id="stop1" /><stop
         style="stop-color:#566dab;stop-opacity:1;"
         offset="1"
         id="stop2" /></linearGradient><clipPath
       clipPathUnits="userSpaceOnUse"
       id="clipPath289"><path
         id="path289"
         style="stroke-width:0.1;stroke-linecap:square;paint-order:markers fill stroke;stop-color:#000000"
         d="m -880.82767,-187.29769 h 1640.84 v 73.28155 h -1640.84 z" /></clipPath><clipPath
       clipPathUnits="userSpaceOnUse"
       id="clipPath287"><rect
         style="fill:none;stroke:#000000;stroke-width:0.999999;stroke-linecap:butt;stroke-linejoin:bevel;paint-order:stroke markers fill;stop-color:#000000"
         id="rect287"
         width="44.999748"
         height="77.937294"
         x="251.53429"
         y="222.73541" /></clipPath><clipPath
       clipPathUnits="userSpaceOnUse"
       id="clipPath285"><rect
         style="fill:none;stroke:#000000;stroke-width:0.999999;stroke-linecap:butt;stroke-linejoin:bevel;paint-order:stroke markers fill;stop-color:#000000"
         id="rect285"
         width="44.999748"
         height="77.937294"
         x="251.53429"
         y="222.73541" /></clipPath><clipPath
       clipPathUnits="userSpaceOnUse"
       id="clipPath279"><rect
         style="fill:none;stroke:#000000;stroke-linecap:butt;stroke-linejoin:bevel;paint-order:stroke markers fill;stop-color:#000000"
         id="rect279"
         width="45.034248"
         height="38.955639"
         x="262.48285"
         y="121.00073" /></clipPath><clipPath
       clipPathUnits="userSpaceOnUse"
       id="clipPath267"><path
         id="path267"
         style="stroke-width:0.1;stroke-linecap:square;paint-order:markers fill stroke;stop-color:#000000"
         d="m -880.82767,-187.29769 h 1640.84 v 73.28155 h -1640.84 z" /></clipPath><clipPath
       clipPathUnits="userSpaceOnUse"
       id="clipPath230"><path
         id="path230"
         style="stroke-width:0.1;stroke-linecap:square;paint-order:markers fill stroke;stop-color:#000000"
         d="m -880.82767,-187.29769 h 1640.84 v 73.28155 h -1640.84 z" /></clipPath><clipPath
       clipPathUnits="userSpaceOnUse"
       id="clipPath211"><path
         id="path211"
         style="stroke-width:0.1;stroke-linecap:square;paint-order:markers fill stroke;stop-color:#000000"
         d="M 438.25066,553.76374 H 1298.1212 V 755.15928 H 438.25066 Z" /></clipPath><clipPath
       clipPathUnits="userSpaceOnUse"
       id="clipPath197"><path
         id="path197"
         style="stroke-width:0.1;stroke-linecap:square;paint-order:markers fill stroke;stop-color:#000000"
         d="M 438.25066,553.76374 H 1298.1212 V 755.15928 H 438.25066 Z" /></clipPath><clipPath
       clipPathUnits="userSpaceOnUse"
       id="clipPath136"><path
         id="path134"
         style="stroke-width:0.0999999;stroke-linecap:square;paint-order:markers fill stroke;stop-color:#000000"
         d="m 1691.1994,-792.32001 h 1634.8919 v 92.82806 H 1691.1994 Z" /></clipPath><clipPath
       clipPathUnits="userSpaceOnUse"
       id="clipPath130"><path
         id="path130"
         style="stroke-width:0.1;stroke-linecap:square;paint-order:markers fill stroke;stop-color:#000000"
         d="m 1736.6147,-745.57287 h 1589.4765 v 72.46715 H 1736.6147 Z" /></clipPath><clipPath
       clipPathUnits="userSpaceOnUse"
       id="clipPath127"><rect
         style="fill:#000000;stroke:#000000;stroke-width:0;stroke-linejoin:bevel;paint-order:stroke markers fill;stop-color:#000000"
         id="rect127"
         width="20"
         height="200"
         x="530"
         y="595" /></clipPath><clipPath
       clipPathUnits="userSpaceOnUse"
       id="clipPath125"><path
         id="path125"
         style="stroke-width:0.0999999;stroke-linecap:square;paint-order:markers fill stroke;stop-color:#000000"
         d="m 1806.4991,-753.5228 h 1637.2646 v 66.90533 H 1806.4991 Z" /></clipPath><clipPath
       clipPathUnits="userSpaceOnUse"
       id="clipPath113"><rect
         style="fill:none;stroke:#000000;stroke-width:0.999999;stroke-linecap:butt;stroke-linejoin:bevel;paint-order:stroke markers fill;stop-color:#000000"
         id="rect113"
         width="46.160622"
         height="39.922417"
         x="86.574379"
         y="420.06253" /></clipPath><clipPath
       clipPathUnits="userSpaceOnUse"
       id="clipPath111"><rect
         style="fill:#ff0000;stroke:none;stroke-width:3;stroke-linecap:square;stroke-linejoin:miter;paint-order:stroke markers fill;stop-color:#000000"
         id="rect111"
         width="78"
         height="45.033199"
         x="763.61322"
         y="452.82422" /></clipPath><clipPath
       clipPathUnits="userSpaceOnUse"
       id="clipPath109"><rect
         style="fill:#000000;stroke:none;stroke-width:0.999995;stroke-linecap:butt;stroke-linejoin:bevel;paint-order:stroke markers fill;stop-color:#000000"
         id="rect109"
         width="46.19186"
         height="80.006783"
         x="74.999985"
         y="399.99661" /></clipPath><clipPath
       clipPathUnits="userSpaceOnUse"
       id="clipPath74"><path
         id="path74"
         style="stroke-width:0.1;stroke-linecap:square;paint-order:markers fill stroke;stop-color:#000000"
         d="M 438.25066,553.76374 H 1298.1212 V 755.15928 H 438.25066 Z" /></clipPath><clipPath
       clipPathUnits="userSpaceOnUse"
       id="clipPath45"><rect
         style="fill:none;stroke:#000000;stroke-width:0.999999;stroke-linecap:butt;stroke-linejoin:bevel;paint-order:stroke markers fill;stop-color:#000000"
         id="rect45"
         width="44.999748"
         height="77.937294"
         x="251.53429"
         y="222.73541" /></clipPath><clipPath
       clipPathUnits="userSpaceOnUse"
       id="clipPath41"><rect
         style="fill:none;stroke:#000000;stroke-width:0.999999;stroke-linecap:butt;stroke-linejoin:bevel;paint-order:stroke markers fill;stop-color:#000000"
         id="rect41"
         width="44.999748"
         height="77.937294"
         x="251.53429"
         y="222.73541" /></clipPath><clipPath
       clipPathUnits="userSpaceOnUse"
       id="clipPath37"><rect
         style="fill:none;stroke:#000000;stroke-width:0.999999;stroke-linecap:butt;stroke-linejoin:bevel;paint-order:stroke markers fill;stop-color:#000000"
         id="rect37"
         width="44.999748"
         height="77.937294"
         x="251.53429"
         y="222.73541" /></clipPath><clipPath
       clipPathUnits="userSpaceOnUse"
       id="clipPath32"><rect
         style="fill:none;stroke:#000000;stroke-linecap:butt;stroke-linejoin:bevel;paint-order:stroke markers fill;stop-color:#000000"
         id="rect32"
         width="45.034248"
         height="38.955639"
         x="262.48285"
         y="121.00073" /></clipPath><clipPath
       clipPathUnits="userSpaceOnUse"
       id="clipPath18"><path
         id="path18"
         style="stroke-width:0.1;stroke-linecap:square;paint-order:markers fill stroke;stop-color:#000000"
         d="m -880.82767,-187.29769 h 1640.84 v 73.28155 h -1640.84 z" /></clipPath><clipPath
       clipPathUnits="userSpaceOnUse"
       id="clipPath1"><path
         id="path1-7"
         style="stroke-width:0.1;stroke-linecap:square;paint-order:markers fill stroke;stop-color:#000000"
         d="m -880.82767,-187.29769 h 1640.84 v 73.28155 h -1640.84 z" /></clipPath><clipPath
       clipPathUnits="userSpaceOnUse"
       id="clipPath54"><path
         id="path54"
         style="stroke-width:0.0999999;stroke-linecap:square;paint-order:markers fill stroke;stop-color:#000000"
         d="m 1691.1994,-792.32001 h 1634.8919 v 92.82806 H 1691.1994 Z" /></clipPath><clipPath
       clipPathUnits="userSpaceOnUse"
       id="clipPath55"><path
         id="path55"
         style="stroke-width:0.1;stroke-linecap:square;paint-order:markers fill stroke;stop-color:#000000"
         d="m 1736.6147,-745.57287 h 1589.4765 v 72.46715 H 1736.6147 Z" /></clipPath><clipPath
       clipPathUnits="userSpaceOnUse"
       id="clipPath150"><rect
         style="fill:#000000;stroke:#000000;stroke-width:0;stroke-linejoin:bevel;paint-order:stroke markers fill;stop-color:#000000"
         id="rect5-4"
         width="20"
         height="200"
         x="530"
         y="595" /></clipPath><clipPath
       clipPathUnits="userSpaceOnUse"
       id="clipPath51"><path
         id="path51"
         style="stroke-width:0.0999999;stroke-linecap:square;paint-order:markers fill stroke;stop-color:#000000"
         d="m 1806.4991,-753.5228 h 1637.2646 v 66.90533 H 1806.4991 Z" /></clipPath><clipPath
       clipPathUnits="userSpaceOnUse"
       id="clipPath135"><rect
         style="fill:none;stroke:#000000;stroke-width:0.999999;stroke-linecap:butt;stroke-linejoin:bevel;paint-order:stroke markers fill;stop-color:#000000"
         id="rect135"
         width="46.160622"
         height="39.922417"
         x="86.574379"
         y="420.06253" /></clipPath><clipPath
       clipPathUnits="userSpaceOnUse"
       id="clipPath134"><rect
         style="fill:#ff0000;stroke:none;stroke-width:3;stroke-linecap:square;stroke-linejoin:miter;paint-order:stroke markers fill;stop-color:#000000"
         id="rect134"
         width="78"
         height="45.033199"
         x="763.61322"
         y="452.82422" /></clipPath><clipPath
       clipPathUnits="userSpaceOnUse"
       id="clipPath132"><rect
         style="fill:#000000;stroke:none;stroke-width:0.999995;stroke-linecap:butt;stroke-linejoin:bevel;paint-order:stroke markers fill;stop-color:#000000"
         id="rect132"
         width="46.19186"
         height="80.006783"
         x="74.999985"
         y="399.99661" /></clipPath><clipPath
       clipPathUnits="userSpaceOnUse"
       id="clipPath114"><rect
         style="fill:#000000;stroke:none;stroke-width:0.999995;stroke-linecap:butt;stroke-linejoin:bevel;paint-order:stroke markers fill;stop-color:#000000"
         id="rect114"
         width="46.19186"
         height="80.006783"
         x="74.999985"
         y="399.99661" /></clipPath><clipPath
       clipPathUnits="userSpaceOnUse"
       id="clipPath112"><rect
         style="fill:#ff0000;stroke:none;stroke-width:3;stroke-linecap:square;stroke-linejoin:miter;paint-order:stroke markers fill;stop-color:#000000"
         id="rect112"
         width="78"
         height="45.033199"
         x="763.61322"
         y="452.82422" /></clipPath><clipPath
       clipPathUnits="userSpaceOnUse"
       id="clipPath27"><rect
         style="fill:none;stroke:#000000;stroke-width:0.999999;stroke-linecap:butt;stroke-linejoin:bevel;paint-order:stroke markers fill;stop-color:#000000"
         id="rect28-6"
         width="46.160622"
         height="39.922417"
         x="86.574379"
         y="420.06253" /></clipPath><clipPath
       clipPathUnits="userSpaceOnUse"
       id="clipPath25"><rect
         style="fill:#ff0000;stroke:none;stroke-width:3;stroke-linecap:square;stroke-linejoin:miter;paint-order:stroke markers fill;stop-color:#000000"
         id="rect25-8"
         width="78"
         height="45.033199"
         x="763.61322"
         y="452.82422" /></clipPath><clipPath
       clipPathUnits="userSpaceOnUse"
       id="clipPath33"><rect
         style="fill:#000000;stroke:none;stroke-width:0.999995;stroke-linecap:butt;stroke-linejoin:bevel;paint-order:stroke markers fill;stop-color:#000000"
         id="rect33"
         width="46.19186"
         height="80.006783"
         x="74.999985"
         y="399.99661" /></clipPath><clipPath
       clipPathUnits="userSpaceOnUse"
       id="clipPath5"><path
         id="path5"
         style="stroke-width:0.1;stroke-linecap:square;paint-order:markers fill stroke;stop-color:#000000"
         d="M 438.25066,553.76374 H 1298.1212 V 755.15928 H 438.25066 Z" /></clipPath><clipPath
       clipPathUnits="userSpaceOnUse"
       id="clipPath53"><rect
         style="fill:none;stroke:#000000;stroke-width:0.999999;stroke-linecap:butt;stroke-linejoin:bevel;paint-order:stroke markers fill;stop-color:#000000"
         id="rect52"
         width="44.999748"
         height="77.937294"
         x="251.53429"
         y="222.73541" /></clipPath><clipPath
       clipPathUnits="userSpaceOnUse"
       id="clipPath24"><rect
         style="fill:none;stroke:#000000;stroke-width:0.999999;stroke-linecap:butt;stroke-linejoin:bevel;paint-order:stroke markers fill;stop-color:#000000"
         id="rect24"
         width="44.999748"
         height="77.937294"
         x="251.53429"
         y="222.73541" /></clipPath><clipPath
       clipPathUnits="userSpaceOnUse"
       id="clipPath15"><rect
         style="fill:none;stroke:#000000;stroke-linecap:butt;stroke-linejoin:bevel;paint-order:stroke markers fill;stop-color:#000000"
         id="rect15-7"
         width="45.034248"
         height="38.955639"
         x="262.48285"
         y="121.00073" /></clipPath><clipPath
       clipPathUnits="userSpaceOnUse"
       id="clipPath31"><path
         id="path31"
         style="stroke-width:0.1;stroke-linecap:square;paint-order:markers fill stroke;stop-color:#000000"
         d="m -880.82767,-187.29769 h 1640.84 v 73.28155 h -1640.84 z" /></clipPath><clipPath
       clipPathUnits="userSpaceOnUse"
       id="clipPath8"><path
         id="path8"
         style="stroke-width:0.1;stroke-linecap:square;paint-order:markers fill stroke;stop-color:#000000"
         d="m -880.82767,-187.29769 h 1640.84 v 73.28155 h -1640.84 z" /></clipPath><clipPath
       clipPathUnits="userSpaceOnUse"
       id="clipPath52"><path
         id="path52"
         style="stroke-width:0.1;stroke-linecap:square;paint-order:markers fill stroke;stop-color:#000000"
         d="m -880.82767,-187.29769 h 1640.84 v 73.28155 h -1640.84 z" /></clipPath><pattern
       patternUnits="userSpaceOnUse"
       width="15.999999"
       height="15.999999"
       patternTransform="translate(3496.4212,-1145.0277)"
       preserveAspectRatio="xMidYMid"
       id="pattern297"
       style="fill:#000000"><circle
         style="fill-opacity:1;stroke-width:16;stroke-linecap:round;stroke-linejoin:round;paint-order:stroke fill markers"
         id="path297"
         cx="7.9999995"
         cy="7.9999995"
         r="7.9999995" /></pattern><radialGradient
       xlink:href="#linearGradient1"
       id="radialGradient2"
       cx="8.4666662"
       cy="8.4666662"
       fx="8.4666662"
       fy="8.4666662"
       r="8.4666653"
       gradientUnits="userSpaceOnUse" /><linearGradient
       xlink:href="#linearGradient2"
       id="linearGradient4"
       x1="0"
       y1="0"
       x2="16.933331"
       y2="16.933331"
       gradientUnits="userSpaceOnUse" /><linearGradient
       inkscape:collect="always"
       xlink:href="#linearGradient24755"
       id="linearGradient24768"
       x1="79.999985"
       y1="-839.99988"
       x2="880"
       y2="-84"
       gradientUnits="userSpaceOnUse"
       gradientTransform="matrix(0.02239859,0,0,0.02239859,46.90799,-13.46435)" /><linearGradient
       inkscape:collect="always"
       xlink:href="#linearGradient24755"
       id="linearGradient24769"
       gradientUnits="userSpaceOnUse"
       x1="79.999985"
       y1="-839.99988"
       x2="880"
       y2="-84"
       gradientTransform="matrix(0.02239859,0,0,0.02239859,22.895595,-8.8315095)" /><linearGradient
       inkscape:collect="always"
       xlink:href="#linearGradient24755"
       id="linearGradient24770"
       gradientUnits="userSpaceOnUse"
       gradientTransform="matrix(0.02310141,0,0,0.02310141,-1.848113,19.728607)"
       x1="79.999992"
       y1="-853.99988"
       x2="880"
       y2="-121" /><linearGradient
       inkscape:collect="always"
       xlink:href="#linearGradient24755"
       id="linearGradient24773"
       x1="79.999962"
       y1="-854"
       x2="879.99994"
       y2="-120.99998"
       gradientUnits="userSpaceOnUse"
       gradientTransform="matrix(0.02310141,0,0,0.02310141,73.566931,-11.206646)" /></defs><path
     d="m 84.655609,-14.001916 -0.947158,-0.854752 q -2.44875,-2.240837 -4.042747,-3.869487 -1.593997,-1.628649 -2.541155,-2.910777 -0.947158,-1.282129 -1.328331,-2.321692 -0.381173,-1.039563 -0.381173,-2.102228 0,-2.079127 1.397635,-3.476763 1.397635,-1.397635 3.453661,-1.397635 1.31678,0 2.437198,0.623738 1.120419,0.623738 1.95207,1.80191 0.970259,-1.247476 2.056025,-1.836562 1.085766,-0.589086 2.333242,-0.589086 2.056026,0 3.453661,1.397635 1.397636,1.397636 1.397636,3.476763 0,1.062665 -0.381174,2.102228 -0.381173,1.039563 -1.328331,2.321692 -0.947158,1.282128 -2.541155,2.910777 -1.593997,1.62865 -4.042747,3.869487 z"
     id="path1"
     style="fill:#330a0f;fill-opacity:1;stroke-width:0.00661458" /><path
     d="m 84.655608,-14.001916 -0.947158,-0.854753 q -2.443436,-2.243609 -4.039974,-3.870872 -1.59677,-1.627263 -2.543927,-2.909391 -0.947158,-1.282129 -1.328331,-2.321692 -0.381174,-1.039564 -0.381174,-2.102228 0,-2.082593 1.397636,-3.478611 1.397635,-1.395787 3.45366,-1.395787 1.316781,0 2.437199,0.623738 1.120419,0.623738 1.952069,1.80191 0.97026,-1.247476 2.056026,-1.836562 1.085766,-0.589086 2.333242,-0.589086 2.056026,0 3.453661,1.395787 1.397635,1.396018 1.397635,3.478611 0,1.062664 -0.381173,2.102228 -0.381173,1.039563 -1.328331,2.321692 -0.947158,1.282128 -2.543927,2.909391 -1.596539,1.627263 -4.039975,3.870872 z m 0,-1.825012 q 2.338787,-2.148431 3.849157,-3.684675 1.51037,-1.536244 2.399775,-2.691314 0.889404,-1.155071 1.247476,-2.05926 0.358072,-0.903958 0.358072,-1.795441 0,-1.527928 -0.97026,-2.509737 -0.970259,-0.98181 -2.489869,-0.98181 -1.190185,0 -2.203182,0.727694 -1.012997,0.727694 -1.636735,2.044475 h -1.131969 q -0.600637,-1.293679 -1.613633,-2.032924 -1.012997,-0.739245 -2.203182,-0.739245 -1.519611,0 -2.48987,0.98181 -0.970259,0.981809 -0.970259,2.513895 0,0.893562 0.358072,1.806068 0.358072,0.912506 1.247476,2.079127 0.889404,1.166621 2.414097,2.691314 1.524693,1.524693 3.834834,3.650023 z m 0,-6.861119 z"
     id="path1-12"
     style="fill:url(#linearGradient24773);fill-opacity:1;stroke:none;stroke-width:0.0066146;stroke-opacity:1" /><path
     d="m 56.337796,-18.571228 0.716754,-6.092417 h -2.979012 l 1.635097,-5.689241 c -0.328511,-0.164257 -0.66449,-0.302381 -1.007937,-0.414374 -0.343444,-0.111993 -0.701821,-0.16799 -1.075132,-0.16799 -0.989867,0 -1.834592,0.349866 -2.534176,1.049598 -0.699732,0.699583 -1.049598,1.544308 -1.049598,2.534177 0,0.487841 0.09333,0.975608 0.279982,1.4633 0.186657,0.487841 0.515168,1.060274 0.985538,1.717299 0.47037,0.657026 1.112464,1.429777 1.926279,2.318254 0.813817,0.888478 1.847883,1.982276 3.102205,3.281394 z m 3.046208,-0.403175 c 2.090536,-2.030805 3.594973,-3.6995 4.513316,-5.006085 0.918342,-1.306584 1.377513,-2.433009 1.377513,-3.379275 0,-0.980013 -0.349866,-1.820931 -1.049598,-2.522753 -0.699582,-0.701822 -1.544307,-1.052734 -2.534176,-1.052734 -0.228914,0 -0.457902,0.0224 -0.686965,0.0672 -0.228914,0.0448 -0.447896,0.104527 -0.656951,0.179189 l -0.806349,2.441446 h 2.620635 z"
     style="fill:#330a0f;fill-opacity:1;stroke-width:0.00661457"
     id="path1-1" /><path
     d="m 57.681711,-15.345832 c -2.015873,-2.030805 -3.617372,-3.665902 -4.804497,-4.905291 -1.187125,-1.239388 -2.090535,-2.265991 -2.71023,-3.079806 -0.619694,-0.813815 -1.019135,-1.510561 -1.198324,-2.090236 -0.179189,-0.579676 -0.268783,-1.226249 -0.268783,-1.939718 0,-1.367509 0.477836,-2.5291 1.43351,-3.484773 0.955673,-0.955673 2.120399,-1.43351 3.49418,-1.43351 0.671957,0 1.321516,0.123193 1.948677,0.369577 0.62716,0.246385 1.187125,0.601029 1.679894,1.063933 l -1.388712,4.838096 h 2.710229 l -1.030335,8.57866 2.844621,-9.474604 h -2.732628 l 1.5903,-4.748501 c 0.37331,-0.209053 0.765285,-0.365844 1.175926,-0.47037 0.41064,-0.104527 0.832481,-0.156791 1.26552,-0.156791 1.37378,0 2.538507,0.477837 3.49418,1.43351 0.955673,0.955673 1.43351,2.1204 1.43351,3.49418 0,0.688682 -0.08586,1.320024 -0.257584,1.894025 -0.171723,0.574001 -0.563698,1.271643 -1.175926,2.092924 -0.612228,0.821282 -1.508172,1.851617 -2.687831,3.091006 -1.179659,1.239388 -2.784891,2.881952 -4.815697,4.927689 z m -1.343915,-3.225397 0.716755,-6.092416 h -2.979013 l 1.635097,-5.689242 c -0.328512,-0.164256 -0.664491,-0.302381 -1.007936,-0.414374 -0.343445,-0.111993 -0.701823,-0.167989 -1.075132,-0.167989 -0.989869,0 -1.834594,0.349866 -2.534177,1.049598 -0.699732,0.699582 -1.049598,1.544308 -1.049598,2.534176 0,0.487842 0.09333,0.975608 0.279983,1.4633 0.186654,0.487841 0.515167,1.060275 0.985538,1.7173 0.47037,0.657025 1.112463,1.429777 1.926278,2.318254 0.813816,0.888478 1.847884,1.982275 3.102205,3.281393 z m 3.046208,-0.403174 c 2.090535,-2.030806 3.594974,-3.699501 4.513316,-5.006085 0.918342,-1.306584 1.377513,-2.433009 1.377513,-3.379275 0,-0.980013 -0.349866,-1.820931 -1.049598,-2.522753 -0.699582,-0.701823 -1.544308,-1.052734 -2.534176,-1.052734 -0.228914,0 -0.457902,0.0224 -0.686965,0.0672 -0.228913,0.0448 -0.447897,0.104526 -0.65695,0.179188 l -0.80635,2.441447 h 2.620635 z"
     id="path1-8"
     style="fill:url(#linearGradient24768);fill-opacity:1;stroke-width:0.00661457"
     sodipodi:nodetypes="cssssssscccccccssssssscccccsscscssccsscsccccc" /><path
     d="m 33.243744,-26.212817 -1.388713,4.838095 h 2.710229 l -1.030335,8.578662 2.844621,-9.474605 h -2.732628 l 1.5903,-4.748502"
     style="fill:url(#linearGradient24769);fill-opacity:1;stroke:none;stroke-width:0.00661457;stroke-opacity:1"
     id="path1-79" /><rect
     style="fill:#330a0f;fill-opacity:1;stroke:none;stroke-width:2.11667;stroke-linecap:round;stroke-linejoin:round;stroke-dasharray:none;stroke-opacity:1"
     id="rect24776"
     width="101.07082"
     height="16.933331"
     x="118.14697"
     y="-77.454697"
     rx="8.4666653"
     ry="8.4666653" /><rect
     style="fill:#330a0f;fill-opacity:1;stroke:#ffcc00;stroke-width:2.11667;stroke-linecap:round;stroke-linejoin:round;stroke-dasharray:none;stroke-opacity:1"
     id="rect24777"
     width="98.424988"
     height="9.1281242"
     x="93.896179"
     y="84.335922"
     rx="4.5640621"
     ry="4.5640621" /><path
     d="M 9.240564,16.933332 8.293406,16.07858 Q 5.844656,13.837743 4.250659,12.209093 2.656662,10.580444 1.709504,9.2983163 0.762346,8.0161883 0.381173,6.9766253 0,5.9370613 0,4.8743963 0,2.7952693 1.397635,1.3976343 2.79527,-6.5312731e-7 4.851296,-6.5312731e-7 q 1.31678,0 2.437198,0.62373800312731 Q 8.408913,1.2474753 9.240564,2.4256473 10.210823,1.1781713 11.296589,0.58908535 12.382353,-6.531273e-7 13.629833,-6.531273e-7 q 2.056023,0 3.453663,1.3976349531273 1.39764,1.397635 1.39764,3.476762 0,1.062665 -0.38118,2.102229 -0.38117,1.039563 -1.32833,2.321691 -0.94716,1.2821277 -2.541153,2.9107767 -1.594,1.62865 -4.042752,3.869487 z"
     id="path24770"
     style="fill:url(#linearGradient24770);fill-opacity:1;stroke-width:0.00661458" /></svg>
