<?xml version="1.0" encoding="UTF-8" standalone="no"?>
<!-- Created with Inkscape (http://www.inkscape.org/) -->

<svg
   width="2048"
   height="2048"
   viewBox="0 0 541.86666 541.86666"
   version="1.1"
   id="svg1"
   inkscape:version="1.4-dev (2fe0648, 2024-03-20, custom)"
   sodipodi:docname="main_menu_background_pixels.svg"
   xml:space="preserve"
   xmlns:inkscape="http://www.inkscape.org/namespaces/inkscape"
   xmlns:sodipodi="http://sodipodi.sourceforge.net/DTD/sodipodi-0.dtd"
   xmlns:xlink="http://www.w3.org/1999/xlink"
   xmlns="http://www.w3.org/2000/svg"
   xmlns:svg="http://www.w3.org/2000/svg"><sodipodi:namedview
     id="namedview1"
     pagecolor="#505050"
     bordercolor="#ffffff"
     borderopacity="1"
     inkscape:showpageshadow="0"
     inkscape:pageopacity="0"
     inkscape:pagecheckerboard="1"
     inkscape:deskcolor="#505050"
     inkscape:document-units="px"
     inkscape:zoom="0.32"
     inkscape:cx="795.3125"
     inkscape:cy="982.8125"
     inkscape:window-width="1920"
     inkscape:window-height="1017"
     inkscape:window-x="-8"
     inkscape:window-y="-8"
     inkscape:window-maximized="1"
     inkscape:current-layer="layer1"
     showgrid="true"><inkscape:grid
       id="grid600"
       units="px"
       originx="0"
       originy="0"
       spacingx="33.866666"
       spacingy="33.866666"
       empcolor="#0099e5"
       empopacity="0.30196078"
       color="#0099e5"
       opacity="0.14901961"
       empspacing="5"
       enabled="false"
       visible="true"
       dotted="false"
       snapvisiblegridlinesonly="true" /><inkscape:grid
       type="modular"
       id="grid601"
       units="px"
       originx="0"
       originy="0"
       spacingx="40"
       spacingy="40"
       empcolor="#0047cb"
       empopacity="0.30196078"
       color="#0099e5"
       opacity="0.14901961"
       empspacing="0"
       marginx="0"
       marginy="0"
       gapx="9.9999999"
       gapy="9.9999999"
       enabled="false"
       visible="true" /><inkscape:grid
       id="grid602"
       units="px"
       originx="0"
       originy="0"
       spacingx="0.26458333"
       spacingy="0.26458333"
       empcolor="#0099e5"
       empopacity="0.30196078"
       color="#0099e5"
       opacity="0.14901961"
       empspacing="5"
       enabled="false"
       visible="true" /></sodipodi:namedview><defs
     id="defs1"><linearGradient
       id="linearGradient14"
       inkscape:collect="always"><stop
         style="stop-color:#15181e;stop-opacity:1;"
         offset="0"
         id="stop13" /><stop
         style="stop-color:#13141b;stop-opacity:1;"
         offset="1"
         id="stop14" /></linearGradient><linearGradient
       id="linearGradient12"
       inkscape:collect="always"><stop
         style="stop-color:#111418;stop-opacity:1;"
         offset="0"
         id="stop11" /><stop
         style="stop-color:#0f0f15;stop-opacity:1;"
         offset="1"
         id="stop12" /></linearGradient><linearGradient
       id="linearGradient10"
       inkscape:collect="always"><stop
         style="stop-color:#0f1015;stop-opacity:1;"
         offset="0"
         id="stop9" /><stop
         style="stop-color:#0d0e12;stop-opacity:1;"
         offset="1"
         id="stop10" /></linearGradient><linearGradient
       id="linearGradient4"
       inkscape:collect="always"><stop
         style="stop-color:#0b0c0f;stop-opacity:1;"
         offset="0"
         id="stop4" /><stop
         style="stop-color:#09090c;stop-opacity:1;"
         offset="1"
         id="stop5" /></linearGradient><inkscape:path-effect
       effect="fillet_chamfer"
       id="path-effect658"
       is_visible="true"
       lpeversion="1"
       nodesatellites_param="F,0,0,1,0,8.4666666,0,1 @ F,0,0,1,0,8.4666666,0,1 @ F,0,0,1,0,8.4666666,0,1 @ F,0,0,1,0,8.4666666,0,1 @ F,0,0,1,0,8.4666666,0,1 @ F,0,0,1,0,8.4666666,0,1 @ F,0,0,1,0,8.4666666,0,1 @ F,0,0,1,0,8.4666666,0,1 @ F,0,0,1,0,8.4666666,0,1 @ F,0,0,1,0,8.4666666,0,1 @ F,0,0,1,0,8.4666666,0,1 @ F,0,0,1,0,8.4666666,0,1 @ F,0,0,1,0,8.4666666,0,1 @ F,0,0,1,0,8.4666666,0,1 @ F,0,0,1,0,8.4666666,0,1 @ F,0,0,1,0,8.4666666,0,1 @ F,0,0,1,0,8.4666666,0,1 @ F,0,0,1,0,8.4666666,0,1 @ F,0,0,1,0,8.4666666,0,1 @ F,0,0,1,0,8.4666666,0,1 @ F,0,0,1,0,8.4666666,0,1 @ F,0,0,1,0,8.4666666,0,1 @ F,0,0,1,0,8.4666666,0,1 @ F,0,0,1,0,8.4666666,0,1 @ F,0,0,1,0,8.4666666,0,1 @ F,0,0,1,0,8.4666666,0,1 @ F,0,0,1,0,8.4666666,0,1 @ F,0,0,1,0,8.4666666,0,1 @ F,0,0,1,0,8.4666666,0,1 @ F,0,0,1,0,8.4666666,0,1 @ F,0,0,1,0,8.4666666,0,1 @ F,0,0,1,0,8.4666666,0,1 @ F,0,0,1,0,8.4666666,0,1 @ F,0,0,1,0,8.4666666,0,1 @ F,0,0,1,0,8.4666666,0,1 @ F,0,0,1,0,8.4666666,0,1 @ F,0,0,1,0,8.4666666,0,1 @ F,0,0,1,0,8.4666666,0,1 @ F,0,0,1,0,0,0,1 @ F,0,1,1,0,0,0,1"
       radius="32"
       unit="px"
       method="auto"
       mode="F"
       chamfer_steps="1"
       flexible="false"
       use_knot_distance="true"
       apply_no_radius="true"
       apply_with_radius="true"
       only_selected="false"
       hide_knots="false" /><inkscape:path-effect
       effect="fillet_chamfer"
       id="path-effect657"
       is_visible="true"
       lpeversion="1"
       nodesatellites_param="F,0,0,1,0,8.4666666,0,1 @ F,0,0,1,0,8.4666666,0,1 @ F,0,0,1,0,8.4666666,0,1 @ F,0,0,1,0,8.4666666,0,1 @ F,0,0,1,0,8.4666666,0,1 @ F,0,0,1,0,8.4666666,0,1 @ F,0,0,1,0,8.4666666,0,1 @ F,0,0,1,0,8.4666666,0,1 @ F,0,0,1,0,8.4666666,0,1 @ F,0,0,1,0,8.4666666,0,1 @ F,0,0,1,0,8.4666666,0,1 @ F,0,0,1,0,8.4666666,0,1 @ F,0,0,1,0,8.4666666,0,1 @ F,0,0,1,0,8.4666666,0,1 @ F,0,0,1,0,8.4666666,0,1 @ F,0,0,1,0,8.4666666,0,1 @ F,0,0,1,0,8.4666666,0,1 @ F,0,0,1,0,8.4666666,0,1 @ F,0,0,1,0,8.4666666,0,1 @ F,0,0,1,0,8.4666666,0,1 @ F,0,0,1,0,8.4666666,0,1 @ F,0,0,1,0,8.4666666,0,1 @ F,0,0,1,0,8.4666666,0,1 @ F,0,0,1,0,8.4666666,0,1 @ F,0,0,1,0,8.4666666,0,1 @ F,0,0,1,0,8.4666666,0,1 @ F,0,0,1,0,8.4666666,0,1 @ F,0,0,1,0,8.4666666,0,1 @ F,0,0,1,0,8.4666666,0,1 @ F,0,0,1,0,8.4666666,0,1 @ F,0,0,1,0,8.4666666,0,1 @ F,0,0,1,0,8.4666666,0,1 @ F,0,0,1,0,8.4666666,0,1 @ F,0,0,1,0,8.4666666,0,1 @ F,0,0,1,0,8.4666666,0,1 @ F,0,0,1,0,8.4666666,0,1 @ F,0,0,1,0,8.4666666,0,1 @ F,0,0,1,0,8.4666666,0,1 @ F,0,0,1,0,8.4666666,0,1 @ F,0,0,1,0,8.4666666,0,1"
       radius="32"
       unit="px"
       method="auto"
       mode="F"
       chamfer_steps="1"
       flexible="false"
       use_knot_distance="true"
       apply_no_radius="true"
       apply_with_radius="true"
       only_selected="false"
       hide_knots="false" /><inkscape:path-effect
       effect="fillet_chamfer"
       id="path-effect656"
       is_visible="true"
       lpeversion="1"
       nodesatellites_param="F,0,0,1,0,8.4666666,0,1 @ F,0,0,1,0,8.4666666,0,1 @ F,0,0,1,0,8.4666666,0,1 @ F,0,0,1,0,8.4666666,0,1 @ F,0,0,1,0,8.4666666,0,1 @ F,0,0,1,0,8.4666666,0,1 @ F,0,0,1,0,8.4666666,0,1 @ F,0,0,1,0,8.4666666,0,1 @ F,0,0,1,0,8.4666666,0,1 @ F,0,0,1,0,8.4666666,0,1 @ F,0,0,1,0,8.4666666,0,1 @ F,0,0,1,0,8.4666666,0,1 @ F,0,0,1,0,8.4666666,0,1 @ F,0,0,1,0,8.4666666,0,1 @ F,0,0,1,0,8.4666666,0,1 @ F,0,0,1,0,8.4666666,0,1 @ F,0,0,1,0,8.4666666,0,1 @ F,0,0,1,0,8.4666666,0,1 @ F,0,0,1,0,8.4666666,0,1 @ F,0,0,1,0,8.4666666,0,1 @ F,0,0,1,0,8.4666666,0,1 @ F,0,0,1,0,8.4666666,0,1 @ F,0,0,1,0,8.4666666,0,1 @ F,0,0,1,0,8.4666666,0,1 @ F,0,0,1,0,8.4666666,0,1 @ F,0,0,1,0,8.4666666,0,1 @ F,0,0,1,0,8.4666666,0,1 @ F,0,0,1,0,8.4666666,0,1 @ F,0,0,1,0,8.4666666,0,1 @ F,0,0,1,0,8.4666666,0,1 @ F,0,0,1,0,8.4666666,0,1 @ F,0,0,1,0,8.4666666,0,1 @ F,0,0,1,0,8.4666666,0,1 @ F,0,0,1,0,8.4666666,0,1 @ F,0,0,1,0,8.4666666,0,1 @ F,0,0,1,0,8.4666666,0,1 @ F,0,0,1,0,8.4666666,0,1 @ F,0,0,1,0,8.4666666,0,1 @ F,0,0,1,0,0,0,1 @ F,0,1,1,0,0,0,1"
       radius="32"
       unit="px"
       method="auto"
       mode="F"
       chamfer_steps="1"
       flexible="false"
       use_knot_distance="true"
       apply_no_radius="true"
       apply_with_radius="true"
       only_selected="false"
       hide_knots="false" /><linearGradient
       inkscape:collect="always"
       xlink:href="#linearGradient12"
       id="linearGradient664"
       x1="2.4000001e-05"
       y1="237.0211"
       x2="2.4000001e-05"
       y2="440.2211"
       gradientUnits="userSpaceOnUse" /><linearGradient
       inkscape:collect="always"
       xlink:href="#linearGradient10"
       id="linearGradient666"
       x1="-3.0517578e-05"
       y1="101.55444"
       x2="-3.0517578e-05"
       y2="304.75446"
       gradientUnits="userSpaceOnUse" /><linearGradient
       inkscape:collect="always"
       xlink:href="#linearGradient14"
       id="linearGradient2"
       x1="-16.933348"
       y1="630.72107"
       x2="-16.933334"
       y2="833.92126"
       gradientUnits="userSpaceOnUse" /><linearGradient
       inkscape:collect="always"
       xlink:href="#linearGradient4"
       id="linearGradient5"
       x1="0"
       y1="-0.045552149"
       x2="0"
       y2="203.15445"
       gradientUnits="userSpaceOnUse" /></defs><g
     inkscape:label="Слой 1"
     inkscape:groupmode="layer"
     id="layer1"
     transform="translate(0,0.04555215)"><rect
       style="fill:url(#linearGradient5);fill-opacity:1;stroke:none;stroke-width:0.79375;stroke-dasharray:none;stroke-opacity:1;paint-order:stroke fill markers"
       id="rect599"
       width="541.86664"
       height="541.86664"
       x="0"
       y="-0.045552149" /><path
       style="fill:url(#linearGradient666);fill-opacity:1;stroke:none;stroke-width:0.79375;stroke-dasharray:none;stroke-opacity:1;paint-order:stroke fill markers"
       d="M 8.4666666,135.42111 H 25.399997 a 8.4666666,8.4666666 135 0 0 8.466667,-8.46667 v -16.93333 a 8.4666666,8.4666666 135 0 1 8.466667,-8.46667 l 16.933332,0 a 8.4666666,8.4666666 45 0 1 8.466667,8.46667 v 50.8 a 8.4666666,8.4666666 45 0 0 8.466667,8.46667 h 16.933326 a 8.4666666,8.4666666 45 0 1 8.466667,8.46667 v 16.93331 a 8.4666666,8.4666666 45 0 0 8.46667,8.46667 l 16.93333,0 a 8.4666666,8.4666666 135 0 0 8.46667,-8.46667 v -50.79998 a 8.4666666,8.4666666 135 0 1 8.46667,-8.46667 h 16.93333 a 8.4666666,8.4666666 135 0 0 8.46667,-8.46667 V 110.02111 A 8.4666666,8.4666666 135 0 1 177.8,101.55444 h 16.93333 a 8.4666666,8.4666666 45 0 1 8.46667,8.46667 v 16.93333 a 8.4666666,8.4666666 135 0 1 -8.46667,8.46667 H 177.8 a 8.4666666,8.4666666 135 0 0 -8.46667,8.46667 v 16.93333 a 8.4666666,8.4666666 45 0 0 8.46667,8.46667 h 50.79998 a 8.4666666,8.4666666 135 0 0 8.46667,-8.46667 v -16.93333 a 8.4666666,8.4666666 135 0 1 8.46667,-8.46667 h 16.93334 a 8.4666604,8.4666604 45.000021 0 1 8.46666,8.46667 l -3e-5,50.79998 a 8.4666604,8.4666604 45.000021 0 0 8.46666,8.46667 h 16.93335 a 8.4666691,8.4666691 135.00001 0 0 8.46667,-8.46667 l 3e-5,-84.66665 a 8.4666691,8.4666691 135.00001 0 1 8.46667,-8.46667 h 16.93332 a 8.4666666,8.4666666 45 0 1 8.46667,8.46667 v 50.8 a 8.4666666,8.4666666 45 0 0 8.46667,8.46667 h 16.93333 a 8.4666666,8.4666666 45 0 1 8.46667,8.46667 l 0,16.93331 A 8.4666666,8.4666666 45 0 0 381,203.15443 h 16.93332 a 8.4666666,8.4666666 135 0 0 8.46667,-8.46667 v -50.79998 a 8.4666666,8.4666666 45 0 0 -8.46667,-8.46667 H 381 a 8.4666666,8.4666666 45 0 1 -8.46667,-8.46667 V 110.02111 A 8.4666666,8.4666666 135 0 1 381,101.55444 h 16.93332 a 8.4666666,8.4666666 45 0 1 8.46667,8.46667 l 0,16.93333 a 8.4666666,8.4666666 45 0 0 8.46667,8.46667 h 16.93333 a 8.4666591,8.4666591 134.99997 0 0 8.46666,-8.46667 l -1e-5,-16.93333 a 8.4666591,8.4666591 134.99997 0 1 8.46666,-8.46667 h 16.93333 a 8.4666666,8.4666666 45 0 1 8.46667,8.46667 l 0,50.8 a 8.4666666,8.4666666 45 0 0 8.46667,8.46667 h 16.93333 a 8.4666666,8.4666666 135 0 0 8.46667,-8.46667 l 0,-16.93333 a 8.4666666,8.4666666 135 0 1 8.46667,-8.46667 h 16.93332 a 8.4666672,8.4666672 44.999998 0 1 8.46667,8.46667 l 3e-5,397.93333 -541.866687999999,-3e-5 2.741666565e-5,-397.9333 A 8.4666672,8.4666672 135 0 1 8.4666666,135.42111 Z"
       id="path658"
       inkscape:path-effect="#path-effect658"
       inkscape:original-d="M 0,135.42111 H 33.866664 V 101.55444 H 67.73333 v 67.73334 h 33.86666 v 33.86665 h 33.86667 v -67.73332 h 33.86667 V 101.55444 H 203.2 v 33.86667 h -33.86667 v 33.86667 h 67.73332 v -33.86667 h 33.86668 l -5e-5,67.73332 h 33.86669 l 3e-5,-101.59999 h 33.86666 v 67.73334 h 33.86667 v 33.86665 h 33.86666 v -67.73332 h -33.86666 v -33.86667 h 33.86666 v 33.86667 h 33.86667 l -3e-5,-33.86667 h 33.86667 v 67.73334 h 33.86667 v -33.86667 h 33.86666 l 3e-5,406.4 -541.866687999999,-3e-5 z" /><path
       style="fill:url(#linearGradient664);fill-opacity:1;stroke:none;stroke-width:0.79375;stroke-dasharray:none;stroke-opacity:1;paint-order:stroke fill markers"
       d="M 8.4666666,270.88775 H 59.266663 a 8.4666666,8.4666666 45 0 1 8.466667,8.46667 v 16.93333 a 8.4666666,8.4666666 45 0 0 8.466667,8.46667 h 16.933326 a 8.4666666,8.4666666 45 0 1 8.466667,8.46667 v 16.93332 a 8.4666666,8.4666666 45 0 0 8.46667,8.46667 h 16.93332 a 8.4666679,8.4666679 135 0 0 8.46667,-8.46667 l 1e-5,-50.79999 a 8.4666654,8.4666654 45.000004 0 0 -8.46667,-8.46667 h -16.93333 a 8.4666666,8.4666666 45 0 1 -8.46667,-8.46667 v -16.93332 a 8.4666666,8.4666666 135 0 1 8.46667,-8.46667 h 16.93332 a 8.4666666,8.4666666 45 0 1 8.46667,8.46667 v 16.93332 a 8.4666666,8.4666666 45 0 0 8.46667,8.46667 h 16.93333 a 8.4666691,8.4666691 135.00001 0 0 8.46667,-8.46667 l 1e-5,-16.9333 A 8.4666691,8.4666691 135.00001 0 1 177.8,237.02111 l 16.93332,0 a 8.4666679,8.4666679 44.999996 0 1 8.46667,8.46667 l 10e-6,50.79997 a 8.4666679,8.4666679 44.999996 0 0 8.46667,8.46667 h 16.93331 a 8.4666666,8.4666666 135 0 0 8.46667,-8.46667 l 0,-50.79998 a 8.4666666,8.4666666 135 0 1 8.46667,-8.46667 l 16.93331,0 a 8.4666666,8.4666666 45 0 1 8.46667,8.46667 v 50.8 a 8.4666666,8.4666666 45 0 0 8.46667,8.46667 h 16.9333 a 8.4666816,8.4666816 44.999949 0 1 8.46668,8.46667 l 4e-5,16.93333 a 8.4666816,8.4666816 44.999949 0 0 8.46668,8.46667 h 16.93332 a 8.4666666,8.4666666 135 0 0 8.46667,-8.46667 v -50.80002 a 8.4666666,8.4666666 135 0 1 8.46667,-8.46667 h 16.9333 a 8.4666741,8.4666741 135.00003 0 0 8.46668,-8.46667 l 1e-5,-16.93332 A 8.4666741,8.4666741 135.00003 0 1 381,237.02109 h 16.93332 a 8.4666666,8.4666666 45 0 1 8.46667,8.46667 l 0,16.93332 a 8.4666666,8.4666666 135 0 1 -8.46667,8.46667 h -16.93335 a 8.4666591,8.4666591 134.99997 0 0 -8.46666,8.46667 l 1e-5,16.93335 A 8.4666741,8.4666741 44.999975 0 0 381,304.75444 h 16.93332 a 8.4666666,8.4666666 45 0 1 8.46667,8.46667 v 16.9333 a 8.4666666,8.4666666 45 0 0 8.46667,8.46667 h 16.9333 a 8.4666666,8.4666666 135 0 0 8.46667,-8.46667 v -50.79999 a 8.4666666,8.4666666 135 0 1 8.46667,-8.46667 h 16.93333 a 8.4666666,8.4666666 45 0 1 8.46667,8.46667 l 0,16.93333 a 8.4666666,8.4666666 45 0 0 8.46667,8.46667 h 16.93333 a 8.4666666,8.4666666 135 0 0 8.46667,-8.46667 v -50.79998 a 8.4666666,8.4666666 135 0 1 8.46667,-8.46667 h 16.93332 a 8.4666666,8.4666666 45 0 1 8.46667,8.46667 v 287.86667 a 8.4666686,8.4666686 134.99999 0 1 -8.46667,8.46667 L 8.4666666,541.82124 A 8.4666646,8.4666646 44.999993 0 1 0,533.35457 V 279.35442 a 8.4666666,8.4666666 135 0 1 8.4666666,-8.46667 z"
       id="path657"
       inkscape:path-effect="#path-effect657"
       inkscape:original-d="m 0,270.88775 h 67.73333 v 33.86667 h 33.86666 v 33.86666 h 33.86666 l 1e-5,-67.73333 h -33.86667 v -33.86666 h 33.86666 v 33.86666 h 33.86667 l 1e-5,-33.86664 h 33.86666 l 10e-6,67.73331 h 33.86665 V 237.0211 h 33.86665 v 67.73334 h 33.86664 l 6e-5,33.86667 h 33.86666 v -67.73336 h 33.86664 l 3e-5,-33.86666 h 33.86666 v 33.86666 H 372.5333 l 3e-5,33.86669 h 33.86666 v 33.86664 h 33.86664 v -67.73333 h 33.86667 v 33.86667 h 33.86667 V 237.0211 h 33.86666 V 541.82111 L 0,541.82124 Z"
       transform="translate(-2.4e-5,1.3958073e-4)" /><path
       style="fill:url(#linearGradient2);fill-opacity:1;stroke:none;stroke-width:0.79375;stroke-dasharray:none;stroke-opacity:1;paint-order:stroke fill markers"
       d="M -8.4666674,630.72108 H 8.4666634 a 8.4666669,8.4666669 44.999999 0 1 8.4666666,8.46667 l 2e-6,50.79992 a 8.4666669,8.4666669 44.999999 0 0 8.466667,8.46667 h 16.93333 a 8.4666666,8.4666666 135 0 0 8.466667,-8.46667 v -16.93325 a 8.4666666,8.4666666 135 0 1 8.466667,-8.46667 h 16.93333 a 8.4666666,8.4666666 45 0 1 8.466667,8.46667 V 757.721 a 8.4666666,8.4666666 45 0 0 8.466667,8.46667 h 16.933333 a 8.4666666,8.4666666 135 0 0 8.46667,-8.46667 l 0,-50.79999 A 8.4666341,8.4666341 135.00011 0 1 127,698.45437 l 16.93333,7e-5 A 8.4666341,8.4666341 135.00011 0 0 152.4,689.9878 v -16.93333 a 8.4666666,8.4666666 135 0 1 8.46667,-8.46667 h 16.93332 a 8.4666666,8.4666666 45 0 1 8.46667,8.46667 v 16.9333 a 8.4666741,8.4666741 134.99997 0 1 -8.46667,8.46668 l -16.93332,1e-5 A 8.4666741,8.4666741 134.99997 0 0 152.4,706.92114 v 16.93327 a 8.4666566,8.4666566 44.999966 0 0 8.46667,8.46666 l 50.79998,-6e-5 a 8.4666779,8.4666779 134.99997 0 0 8.46667,-8.46668 l 1e-5,-50.79991 A 8.4666603,8.4666603 135.00003 0 1 228.6,664.58776 l 16.93328,10e-6 a 8.4666783,8.4666783 45.000011 0 1 8.46667,8.46668 l 5e-5,84.66663 a 8.4666783,8.4666783 45.000011 0 0 8.46667,8.46668 l 16.93333,10e-6 a 8.4666591,8.4666591 135.00003 0 0 8.46667,-8.46666 v -50.8 a 8.4666666,8.4666666 135 0 1 8.46667,-8.46667 h 16.93332 a 8.4666666,8.4666666 135 0 0 8.46667,-8.46667 V 673.05442 A 8.4666666,8.4666666 135 0 1 330.2,664.58775 h 16.9333 a 8.4666704,8.4666704 44.999987 0 1 8.46667,8.46667 l 3e-5,50.79994 a 8.4666904,8.4666904 45.000055 0 0 8.46667,8.46669 l 16.93332,4e-5 a 8.4666866,8.4666866 45.000068 0 1 8.46667,8.46669 V 757.721 a 8.4666666,8.4666666 45 0 0 8.46667,8.46667 h 16.9333 a 8.4666666,8.4666666 135 0 0 8.46667,-8.46667 v -50.79986 a 8.4666741,8.4666741 45.000025 0 0 -8.46667,-8.46668 l -16.9333,-1e-5 a 8.4666741,8.4666741 45.000025 0 1 -8.46667,-8.46668 v -16.93332 a 8.4666666,8.4666666 135 0 1 8.46667,-8.46667 h 16.9333 a 8.4666666,8.4666666 45 0 1 8.46667,8.46667 l 0,16.93335 a 8.4666666,8.4666666 45 0 0 8.46667,8.46667 h 16.93333 a 8.4666666,8.4666666 135 0 0 8.46667,-8.46667 v -50.80005 a 8.4666666,8.4666666 135 0 1 8.46667,-8.46667 h 16.93333 a 8.4666666,8.4666666 45 0 1 8.46667,8.46667 l 0,50.80002 a 8.4666666,8.4666666 45 0 0 8.46667,8.46667 l 16.93332,0 a 8.4666666,8.4666666 45 0 1 8.46667,8.46667 v 127.00002 l -541.866634,1.1e-4 0,-194.73349 a 8.4666666,8.4666666 135 0 1 8.4666666,-8.46667 z"
       id="path656"
       inkscape:path-effect="#path-effect656"
       inkscape:original-d="M -16.933334,630.72108 H 16.93333 l 2e-6,67.73326 H 50.799996 V 664.58775 H 84.66666 v 101.59992 h 33.86667 V 698.45434 L 152.4,698.45447 V 664.5878 h 33.86666 v 33.86664 l -33.86666,3e-5 v 33.86661 l 67.73332,-8e-5 1e-5,-67.73325 33.86662,3e-5 5e-5,101.59997 33.86667,3e-5 v -67.73334 h 33.86666 v -33.86669 h 33.86664 l 3e-5,67.73328 33.86666,8e-5 v 33.86656 h 33.86664 v -67.7332 l -33.86664,-3e-5 v -33.86666 h 33.86664 v 33.86669 h 33.86667 v -67.73339 h 33.86667 v 67.73336 h 33.86666 v 135.46669 l -541.866634,1.1e-4 z"
       transform="translate(16.933334,-292.09947)" /></g></svg>
