<?xml version="1.0" encoding="UTF-8" standalone="no"?>
<svg
   version="1.1"
   width="2000px"
   height="3000px"
   style="shape-rendering:geometricPrecision; text-rendering:geometricPrecision; image-rendering:optimizeQuality; fill-rule:evenodd; clip-rule:evenodd"
   id="svg314"
   sodipodi:docname="menu_gray.svg"
   xml:space="preserve"
   inkscape:version="1.2.2 (732a01da63, 2022-12-09)"
   xmlns:inkscape="http://www.inkscape.org/namespaces/inkscape"
   xmlns:sodipodi="http://sodipodi.sourceforge.net/DTD/sodipodi-0.dtd"
   xmlns="http://www.w3.org/2000/svg"
   xmlns:svg="http://www.w3.org/2000/svg"><defs
     id="defs318" /><sodipodi:namedview
     id="namedview316"
     pagecolor="#505050"
     bordercolor="#ffffff"
     borderopacity="1"
     inkscape:showpageshadow="0"
     inkscape:pageopacity="0"
     inkscape:pagecheckerboard="1"
     inkscape:deskcolor="#505050"
     showgrid="false"
     inkscape:zoom="0.19728279"
     inkscape:cx="7.6032987"
     inkscape:cy="1677.7946"
     inkscape:window-width="1920"
     inkscape:window-height="1017"
     inkscape:window-x="-8"
     inkscape:window-y="-8"
     inkscape:window-maximized="1"
     inkscape:current-layer="svg314" /><g
     id="g300"
     style="fill:#1f2126;fill-opacity:1"><path
       style="opacity:1;fill:#1f2126;fill-opacity:1"
       fill="#ffae00"
       d="M -0.5,-0.5 C 666.167,-0.5 1332.83,-0.5 1999.5,-0.5C 1999.5,999.5 1999.5,1999.5 1999.5,2999.5C 1332.83,2999.5 666.167,2999.5 -0.5,2999.5C -0.5,1999.5 -0.5,999.5 -0.5,-0.5 Z"
       id="path298" /></g><g
     id="g304"
     style="fill:#191b1f;fill-opacity:1"><path
       style="opacity:1;fill:#191b1f;fill-opacity:1"
       fill="#feb900"
       d="M 1148.5,55.5 C 1258.9,233.349 1413.9,354.849 1613.5,420C 1637.92,427.439 1662.59,433.939 1687.5,439.5C 1605.77,537.364 1574.27,649.697 1593,776.5C 1612.06,880.351 1662.56,965.018 1744.5,1030.5C 1730.38,1085.6 1727.72,1141.27 1736.5,1197.5C 1688.75,1269.31 1682.59,1344.65 1718,1423.5C 1721.97,1430.96 1726.13,1438.3 1730.5,1445.5C 1657.18,1531.23 1635.01,1628.9 1664,1738.5C 1672.67,1766.03 1684.5,1792.03 1699.5,1816.5C 1672.14,1879.85 1675.98,1941.18 1711,2000.5C 1720.5,2014.67 1731.5,2027.67 1744,2039.5C 1733.99,2073.14 1739.66,2103.81 1761,2131.5C 1767.37,2137.93 1774.2,2143.76 1781.5,2149C 1765.7,2174.06 1755.2,2201.23 1750,2230.5C 1674.14,2295.37 1641.8,2377.7 1653,2477.5C 1655.02,2491.93 1658.19,2506.09 1662.5,2520C 1583.34,2627.19 1531.51,2746.69 1507,2878.5C 1504.62,2891.1 1502.79,2903.77 1501.5,2916.5C 1366.31,2865.69 1228.65,2857.86 1088.5,2893C 1034.12,2907.57 982.289,2928.4 933,2955.5C 870.623,2897.69 797.79,2878.53 714.5,2898C 691.611,2904.4 670.278,2914.07 650.5,2927C 649.5,2927.67 648.5,2927.67 647.5,2927C 584.834,2829.35 499.5,2759.02 391.5,2716C 422.402,2653.42 426.902,2588.92 405,2522.5C 379.266,2454.27 333.1,2405.27 266.5,2375.5C 367.537,2266.54 409.037,2137.88 391,1989.5C 376.336,1893.18 335.836,1809.85 269.5,1739.5C 326.74,1681.57 344.24,1613.24 322,1534.5C 308.323,1495.33 285.156,1463 252.5,1437.5C 331.561,1360.15 363.061,1266.49 347,1156.5C 334.147,1086.91 301.647,1028.58 249.5,981.5C 240.817,939.812 223.317,902.478 197,869.5C 183.337,854.16 167.171,842.327 148.5,834C 190.465,806.703 221.632,770.203 242,724.5C 253.564,694.884 258.231,664.217 256,632.5C 336.114,550.031 372.948,451.031 366.5,335.5C 455.215,308.616 517.049,252.282 552,166.5C 742.164,179.334 925.33,149.5 1101.5,77C 1117.5,70.3319 1133.16,63.1653 1148.5,55.5 Z"
       id="path302" /></g><g
     id="g308"
     style="fill:#15171a;fill-opacity:1"><path
       style="opacity:1;fill:#15171a;fill-opacity:1"
       fill="#ffbf00"
       d="M 865.5,328.5 C 866.675,328.281 867.675,328.614 868.5,329.5C 916.345,392.417 980.012,422.584 1059.5,420C 1107.2,416.802 1149.53,400.302 1186.5,370.5C 1246.95,495.759 1345.62,571.592 1482.5,598C 1426.07,682.49 1406.57,774.99 1424,875.5C 1445.28,977.31 1498.78,1057.14 1584.5,1115C 1515.99,1181.53 1490.16,1262.03 1507,1356.5C 1516.57,1399.3 1535.4,1437.3 1563.5,1470.5C 1479.23,1524.73 1442.39,1602.06 1453,1702.5C 1463.33,1760.76 1491.17,1808.6 1536.5,1846C 1500.85,1895.18 1492.69,1948.68 1512,2006.5C 1519.03,2024.91 1528.87,2041.58 1541.5,2056.5C 1463.03,2103.22 1418.53,2172.22 1408,2263.5C 1403.31,2326.6 1418.81,2384.1 1454.5,2436C 1350.89,2463.45 1278.56,2526.61 1237.5,2625.5C 1163.51,2591.08 1091.18,2594.24 1020.5,2635C 999.865,2648.46 981.531,2664.63 965.5,2683.5C 919.266,2599.53 847.933,2558.03 751.5,2559C 738.02,2560.03 724.687,2561.69 711.5,2564C 663.629,2488.53 595.296,2443.87 506.5,2430C 574.529,2325.73 605.029,2211.23 598,2086.5C 586.032,1933.41 523.532,1805.57 410.5,1703C 459.81,1638.47 475.977,1566.3 459,1486.5C 452.407,1458.82 441.574,1432.99 426.5,1409C 508.803,1353.54 545.303,1276.04 536,1176.5C 522.747,1096.11 480.247,1036.94 408.5,999C 456.017,932.044 466.517,859.544 440,781.5C 431.435,759.187 419.935,738.687 405.5,720C 519.972,655.469 579.972,557.135 585.5,425C 584.895,411.459 583.895,397.959 582.5,384.5C 672.666,404.596 757.999,392.096 838.5,347C 847.953,341.361 856.953,335.194 865.5,328.5 Z"
       id="path306" /></g><g
     id="g312"
     style="fill:#101314;fill-opacity:1"><path
       style="opacity:1;fill:#101314;fill-opacity:1"
       fill="#ffc500"
       d="M 829.5,791.5 C 878.732,854.422 942.399,876.588 1020.5,858C 1031.32,854.617 1041.82,850.45 1052,845.5C 1108.43,916.146 1179.26,966.812 1264.5,997.5C 1234,1034.01 1229.33,1073.68 1250.5,1116.5C 1207.46,1164.21 1196.62,1218.54 1218,1279.5C 1230.37,1308.7 1249.54,1332.37 1275.5,1350.5C 1221.04,1449.8 1208.87,1554.13 1239,1663.5C 1250.6,1702.52 1267.43,1739.02 1289.5,1773C 1245.51,1825.42 1235.35,1883.92 1259,1948.5C 1262.52,1957.04 1266.69,1965.21 1271.5,1973C 1178,2032.69 1112.34,2114.86 1074.5,2219.5C 1031.24,2180.92 980.908,2166.76 923.5,2177C 905.584,2180.75 888.751,2187.25 873,2196.5C 850.462,2131.3 808.629,2082.8 747.5,2051C 746.978,2050.44 746.645,2049.77 746.5,2049C 786.184,1966.96 793.35,1882.13 768,1794.5C 747.39,1730.25 711.556,1676.25 660.5,1632.5C 708.562,1601.68 724.729,1558.68 709,1503.5C 705.399,1494.46 700.899,1485.96 695.5,1478C 757.314,1401.22 776.481,1314.72 753,1218.5C 735.393,1157.25 701.559,1107.09 651.5,1068C 716.542,1025.76 747.709,965.592 745,887.5C 744.065,878.126 742.899,868.792 741.5,859.5C 785.09,855.063 814.423,832.396 829.5,791.5 Z"
       id="path310" /></g></svg>
