<?xml version="1.0" encoding="UTF-8" standalone="no"?>
<!-- Created with Inkscape (http://www.inkscape.org/) -->

<svg
   width="512"
   height="64"
   viewBox="0 0 135.46666 16.933333"
   version="1.1"
   id="svg1"
   xml:space="preserve"
   sodipodi:docname="over.svg"
   inkscape:version="1.4-dev (2fe0648, 2024-03-20, custom)"
   xmlns:inkscape="http://www.inkscape.org/namespaces/inkscape"
   xmlns:sodipodi="http://sodipodi.sourceforge.net/DTD/sodipodi-0.dtd"
   xmlns="http://www.w3.org/2000/svg"
   xmlns:svg="http://www.w3.org/2000/svg"><sodipodi:namedview
     id="namedview1"
     pagecolor="#505050"
     bordercolor="#ffffff"
     borderopacity="1"
     inkscape:showpageshadow="0"
     inkscape:pageopacity="0"
     inkscape:pagecheckerboard="1"
     inkscape:deskcolor="#505050"
     inkscape:zoom="2"
     inkscape:cx="236"
     inkscape:cy="43.25"
     inkscape:window-width="1920"
     inkscape:window-height="1017"
     inkscape:window-x="-8"
     inkscape:window-y="-8"
     inkscape:window-maximized="1"
     inkscape:current-layer="layer1" /><defs
     id="defs1" /><g
     id="layer1"><path
       d="M 4.2322997,0 C 1.9236452,0 0,1.9236452 0,4.2322997 V 12.698966 C 0,15.00762 1.923646,16.93385 4.2322997,16.93385 H 131.2323 c 2.30866,0 4.23436,-1.926222 4.23436,-4.234884 V 4.2322997 C 135.46666,1.9236375 133.54096,0 131.2323,0 H 113.88865 L 100.16804,4.9981444 H 35.298619 L 21.57801,0 Z m 0.00103,2.1166666 H 21.203873 l 13.721126,4.9971108 h 65.616661 l 13.72113,-4.9971108 h 16.97054 c 1.17263,0 2.11667,0.9440336 2.11667,2.1166666 V 12.7 c 0,1.172633 -0.94404,2.116666 -2.11667,2.116666 H 4.2333332 c -1.172633,0 -2.1166666,-0.944033 -2.1166666,-2.116666 V 4.2333332 c 0,-1.172633 0.9440336,-2.1166666 2.1166666,-2.1166666 z"
       style="fill:#1a092a;stroke-linecap:round;paint-order:stroke fill markers"
       id="path5" /></g></svg>
